<mxfile host="app.diagrams.net" modified="2021-03-29T17:31:07.969Z" agent="5.0 (Windows NT 10.0; Win64; x64) AppleWebKit/537.36 (KHTML, like Gecko) Chrome/89.0.4389.90 Safari/537.36" etag="lpXjVr6dWygxfaiG9WxF" version="14.5.3" type="github">
  <diagram id="C5RBs43oDa-KdzZeNtuy" name="Page-1">
    <mxGraphModel dx="4673" dy="908" grid="1" gridSize="10" guides="1" tooltips="1" connect="1" arrows="1" fold="1" page="1" pageScale="1" pageWidth="3000" pageHeight="6000" background="#EEEEEE" math="0" shadow="0">
      <root>
        <mxCell id="WIyWlLk6GJQsqaUBKTNV-0" />
        <mxCell id="WIyWlLk6GJQsqaUBKTNV-1" parent="WIyWlLk6GJQsqaUBKTNV-0" />
        <mxCell id="AAZlV12Gzx9VgUJV0CkU-73" value="" style="rounded=0;whiteSpace=wrap;html=1;fillColor=#ffe6cc;align=left;strokeColor=#d79b00;fontFamily=Verdana;" vertex="1" parent="WIyWlLk6GJQsqaUBKTNV-1">
          <mxGeometry x="-80" y="510" width="400" height="832" as="geometry" />
        </mxCell>
        <mxCell id="zkfFHV4jXpPFQw0GAbJ--0" value="Person" style="swimlane;fontStyle=2;align=center;verticalAlign=top;childLayout=stackLayout;horizontal=1;startSize=26;horizontalStack=0;resizeParent=1;resizeLast=0;collapsible=1;marginBottom=0;shadow=0;strokeWidth=1;fillColor=#F5AB50;strokeColor=#909090;fontColor=#1A1A1A;fontFamily=Verdana;" parent="WIyWlLk6GJQsqaUBKTNV-1" vertex="1">
          <mxGeometry x="1530" y="1750" width="160" height="138" as="geometry">
            <mxRectangle x="230" y="140" width="160" height="26" as="alternateBounds" />
          </mxGeometry>
        </mxCell>
        <mxCell id="zkfFHV4jXpPFQw0GAbJ--1" value="Name" style="text;align=left;verticalAlign=top;spacingLeft=4;spacingRight=4;overflow=hidden;rotatable=0;points=[[0,0.5],[1,0.5]];portConstraint=eastwest;fontColor=#1A1A1A;fontFamily=Verdana;" parent="zkfFHV4jXpPFQw0GAbJ--0" vertex="1">
          <mxGeometry y="26" width="160" height="26" as="geometry" />
        </mxCell>
        <mxCell id="zkfFHV4jXpPFQw0GAbJ--2" value="Phone Number" style="text;align=left;verticalAlign=top;spacingLeft=4;spacingRight=4;overflow=hidden;rotatable=0;points=[[0,0.5],[1,0.5]];portConstraint=eastwest;shadow=0;html=0;fontColor=#1A1A1A;fontFamily=Verdana;" parent="zkfFHV4jXpPFQw0GAbJ--0" vertex="1">
          <mxGeometry y="52" width="160" height="26" as="geometry" />
        </mxCell>
        <mxCell id="zkfFHV4jXpPFQw0GAbJ--3" value="Email Address" style="text;align=left;verticalAlign=top;spacingLeft=4;spacingRight=4;overflow=hidden;rotatable=0;points=[[0,0.5],[1,0.5]];portConstraint=eastwest;shadow=0;html=0;fontColor=#1A1A1A;fontFamily=Verdana;" parent="zkfFHV4jXpPFQw0GAbJ--0" vertex="1">
          <mxGeometry y="78" width="160" height="26" as="geometry" />
        </mxCell>
        <mxCell id="zkfFHV4jXpPFQw0GAbJ--4" value="" style="line;html=1;strokeWidth=1;align=left;verticalAlign=middle;spacingTop=-1;spacingLeft=3;spacingRight=3;rotatable=0;labelPosition=right;points=[];portConstraint=eastwest;fillColor=#F5AB50;strokeColor=#909090;fontColor=#1A1A1A;labelBackgroundColor=#EEEEEE;fontFamily=Verdana;" parent="zkfFHV4jXpPFQw0GAbJ--0" vertex="1">
          <mxGeometry y="104" width="160" height="8" as="geometry" />
        </mxCell>
        <mxCell id="zkfFHV4jXpPFQw0GAbJ--5" value="Purchase Parking Pass" style="text;align=left;verticalAlign=top;spacingLeft=4;spacingRight=4;overflow=hidden;rotatable=0;points=[[0,0.5],[1,0.5]];portConstraint=eastwest;fontColor=#1A1A1A;fontFamily=Verdana;" parent="zkfFHV4jXpPFQw0GAbJ--0" vertex="1">
          <mxGeometry y="112" width="160" height="26" as="geometry" />
        </mxCell>
        <mxCell id="zkfFHV4jXpPFQw0GAbJ--6" value="Student" style="swimlane;fontStyle=0;align=center;verticalAlign=top;childLayout=stackLayout;horizontal=1;startSize=26;horizontalStack=0;resizeParent=1;resizeLast=0;collapsible=1;marginBottom=0;shadow=0;strokeWidth=1;fillColor=#F5AB50;strokeColor=#909090;fontColor=#1A1A1A;fontFamily=Verdana;" parent="WIyWlLk6GJQsqaUBKTNV-1" vertex="1">
          <mxGeometry x="1430" y="1990" width="160" height="138" as="geometry">
            <mxRectangle x="130" y="380" width="160" height="26" as="alternateBounds" />
          </mxGeometry>
        </mxCell>
        <mxCell id="zkfFHV4jXpPFQw0GAbJ--7" value="Student Number" style="text;align=left;verticalAlign=top;spacingLeft=4;spacingRight=4;overflow=hidden;rotatable=0;points=[[0,0.5],[1,0.5]];portConstraint=eastwest;fontColor=#1A1A1A;fontFamily=Verdana;" parent="zkfFHV4jXpPFQw0GAbJ--6" vertex="1">
          <mxGeometry y="26" width="160" height="26" as="geometry" />
        </mxCell>
        <mxCell id="zkfFHV4jXpPFQw0GAbJ--8" value="Average Mark" style="text;align=left;verticalAlign=top;spacingLeft=4;spacingRight=4;overflow=hidden;rotatable=0;points=[[0,0.5],[1,0.5]];portConstraint=eastwest;shadow=0;html=0;fontColor=#1A1A1A;fontFamily=Verdana;" parent="zkfFHV4jXpPFQw0GAbJ--6" vertex="1">
          <mxGeometry y="52" width="160" height="26" as="geometry" />
        </mxCell>
        <mxCell id="zkfFHV4jXpPFQw0GAbJ--9" value="" style="line;html=1;strokeWidth=1;align=left;verticalAlign=middle;spacingTop=-1;spacingLeft=3;spacingRight=3;rotatable=0;labelPosition=right;points=[];portConstraint=eastwest;fillColor=#F5AB50;strokeColor=#909090;fontColor=#1A1A1A;labelBackgroundColor=#EEEEEE;fontFamily=Verdana;" parent="zkfFHV4jXpPFQw0GAbJ--6" vertex="1">
          <mxGeometry y="78" width="160" height="8" as="geometry" />
        </mxCell>
        <mxCell id="zkfFHV4jXpPFQw0GAbJ--10" value="Is Eligibale To Enroll" style="text;align=left;verticalAlign=top;spacingLeft=4;spacingRight=4;overflow=hidden;rotatable=0;points=[[0,0.5],[1,0.5]];portConstraint=eastwest;fontStyle=4;fontColor=#1A1A1A;fontFamily=Verdana;" parent="zkfFHV4jXpPFQw0GAbJ--6" vertex="1">
          <mxGeometry y="86" width="160" height="26" as="geometry" />
        </mxCell>
        <mxCell id="zkfFHV4jXpPFQw0GAbJ--11" value="Get Seminars Taken" style="text;align=left;verticalAlign=top;spacingLeft=4;spacingRight=4;overflow=hidden;rotatable=0;points=[[0,0.5],[1,0.5]];portConstraint=eastwest;fontColor=#1A1A1A;fontFamily=Verdana;" parent="zkfFHV4jXpPFQw0GAbJ--6" vertex="1">
          <mxGeometry y="112" width="160" height="26" as="geometry" />
        </mxCell>
        <mxCell id="zkfFHV4jXpPFQw0GAbJ--12" value="" style="endArrow=block;endSize=10;endFill=0;shadow=0;strokeWidth=1;edgeStyle=elbowEdgeStyle;elbow=vertical;strokeColor=#182E3E;fontColor=#1A1A1A;labelBackgroundColor=#EEEEEE;fontFamily=Verdana;" parent="WIyWlLk6GJQsqaUBKTNV-1" source="zkfFHV4jXpPFQw0GAbJ--6" target="zkfFHV4jXpPFQw0GAbJ--0" edge="1">
          <mxGeometry width="160" relative="1" as="geometry">
            <mxPoint x="1510" y="1833" as="sourcePoint" />
            <mxPoint x="1510" y="1833" as="targetPoint" />
          </mxGeometry>
        </mxCell>
        <mxCell id="zkfFHV4jXpPFQw0GAbJ--13" value="Professor" style="swimlane;fontStyle=0;align=center;verticalAlign=top;childLayout=stackLayout;horizontal=1;startSize=26;horizontalStack=0;resizeParent=1;resizeLast=0;collapsible=1;marginBottom=0;shadow=0;strokeWidth=1;fillColor=#F5AB50;strokeColor=#909090;fontColor=#1A1A1A;fontFamily=Verdana;" parent="WIyWlLk6GJQsqaUBKTNV-1" vertex="1">
          <mxGeometry x="1640" y="1990" width="160" height="70" as="geometry">
            <mxRectangle x="340" y="380" width="170" height="26" as="alternateBounds" />
          </mxGeometry>
        </mxCell>
        <mxCell id="zkfFHV4jXpPFQw0GAbJ--14" value="Salary" style="text;align=left;verticalAlign=top;spacingLeft=4;spacingRight=4;overflow=hidden;rotatable=0;points=[[0,0.5],[1,0.5]];portConstraint=eastwest;fontColor=#1A1A1A;fontFamily=Verdana;" parent="zkfFHV4jXpPFQw0GAbJ--13" vertex="1">
          <mxGeometry y="26" width="160" height="26" as="geometry" />
        </mxCell>
        <mxCell id="zkfFHV4jXpPFQw0GAbJ--15" value="" style="line;html=1;strokeWidth=1;align=left;verticalAlign=middle;spacingTop=-1;spacingLeft=3;spacingRight=3;rotatable=0;labelPosition=right;points=[];portConstraint=eastwest;fillColor=#F5AB50;strokeColor=#909090;fontColor=#1A1A1A;labelBackgroundColor=#EEEEEE;fontFamily=Verdana;" parent="zkfFHV4jXpPFQw0GAbJ--13" vertex="1">
          <mxGeometry y="52" width="160" height="8" as="geometry" />
        </mxCell>
        <mxCell id="zkfFHV4jXpPFQw0GAbJ--16" value="" style="endArrow=block;endSize=10;endFill=0;shadow=0;strokeWidth=1;edgeStyle=elbowEdgeStyle;elbow=vertical;strokeColor=#182E3E;fontColor=#1A1A1A;labelBackgroundColor=#EEEEEE;fontFamily=Verdana;" parent="WIyWlLk6GJQsqaUBKTNV-1" source="zkfFHV4jXpPFQw0GAbJ--13" target="zkfFHV4jXpPFQw0GAbJ--0" edge="1">
          <mxGeometry width="160" relative="1" as="geometry">
            <mxPoint x="1520" y="2003" as="sourcePoint" />
            <mxPoint x="1620" y="1901" as="targetPoint" />
          </mxGeometry>
        </mxCell>
        <mxCell id="zkfFHV4jXpPFQw0GAbJ--17" value="Address" style="swimlane;fontStyle=0;align=center;verticalAlign=top;childLayout=stackLayout;horizontal=1;startSize=26;horizontalStack=0;resizeParent=1;resizeLast=0;collapsible=1;marginBottom=0;shadow=0;strokeWidth=1;fillColor=#F5AB50;strokeColor=#909090;fontColor=#1A1A1A;fontFamily=Verdana;" parent="WIyWlLk6GJQsqaUBKTNV-1" vertex="1">
          <mxGeometry x="1818" y="1750" width="160" height="216" as="geometry">
            <mxRectangle x="550" y="140" width="160" height="26" as="alternateBounds" />
          </mxGeometry>
        </mxCell>
        <mxCell id="zkfFHV4jXpPFQw0GAbJ--18" value="Street" style="text;align=left;verticalAlign=top;spacingLeft=4;spacingRight=4;overflow=hidden;rotatable=0;points=[[0,0.5],[1,0.5]];portConstraint=eastwest;fontColor=#1A1A1A;fontFamily=Verdana;" parent="zkfFHV4jXpPFQw0GAbJ--17" vertex="1">
          <mxGeometry y="26" width="160" height="26" as="geometry" />
        </mxCell>
        <mxCell id="zkfFHV4jXpPFQw0GAbJ--19" value="City" style="text;align=left;verticalAlign=top;spacingLeft=4;spacingRight=4;overflow=hidden;rotatable=0;points=[[0,0.5],[1,0.5]];portConstraint=eastwest;shadow=0;html=0;fontColor=#1A1A1A;fontFamily=Verdana;" parent="zkfFHV4jXpPFQw0GAbJ--17" vertex="1">
          <mxGeometry y="52" width="160" height="26" as="geometry" />
        </mxCell>
        <mxCell id="zkfFHV4jXpPFQw0GAbJ--20" value="State" style="text;align=left;verticalAlign=top;spacingLeft=4;spacingRight=4;overflow=hidden;rotatable=0;points=[[0,0.5],[1,0.5]];portConstraint=eastwest;shadow=0;html=0;fontColor=#1A1A1A;fontFamily=Verdana;" parent="zkfFHV4jXpPFQw0GAbJ--17" vertex="1">
          <mxGeometry y="78" width="160" height="26" as="geometry" />
        </mxCell>
        <mxCell id="zkfFHV4jXpPFQw0GAbJ--21" value="Postal Code" style="text;align=left;verticalAlign=top;spacingLeft=4;spacingRight=4;overflow=hidden;rotatable=0;points=[[0,0.5],[1,0.5]];portConstraint=eastwest;shadow=0;html=0;fontColor=#1A1A1A;fontFamily=Verdana;" parent="zkfFHV4jXpPFQw0GAbJ--17" vertex="1">
          <mxGeometry y="104" width="160" height="26" as="geometry" />
        </mxCell>
        <mxCell id="zkfFHV4jXpPFQw0GAbJ--22" value="Country" style="text;align=left;verticalAlign=top;spacingLeft=4;spacingRight=4;overflow=hidden;rotatable=0;points=[[0,0.5],[1,0.5]];portConstraint=eastwest;shadow=0;html=0;fontColor=#1A1A1A;fontFamily=Verdana;" parent="zkfFHV4jXpPFQw0GAbJ--17" vertex="1">
          <mxGeometry y="130" width="160" height="26" as="geometry" />
        </mxCell>
        <mxCell id="zkfFHV4jXpPFQw0GAbJ--23" value="" style="line;html=1;strokeWidth=1;align=left;verticalAlign=middle;spacingTop=-1;spacingLeft=3;spacingRight=3;rotatable=0;labelPosition=right;points=[];portConstraint=eastwest;fillColor=#F5AB50;strokeColor=#909090;fontColor=#1A1A1A;labelBackgroundColor=#EEEEEE;fontFamily=Verdana;" parent="zkfFHV4jXpPFQw0GAbJ--17" vertex="1">
          <mxGeometry y="156" width="160" height="8" as="geometry" />
        </mxCell>
        <mxCell id="zkfFHV4jXpPFQw0GAbJ--24" value="Validate" style="text;align=left;verticalAlign=top;spacingLeft=4;spacingRight=4;overflow=hidden;rotatable=0;points=[[0,0.5],[1,0.5]];portConstraint=eastwest;fontColor=#1A1A1A;fontFamily=Verdana;" parent="zkfFHV4jXpPFQw0GAbJ--17" vertex="1">
          <mxGeometry y="164" width="160" height="26" as="geometry" />
        </mxCell>
        <mxCell id="zkfFHV4jXpPFQw0GAbJ--25" value="Output As Label" style="text;align=left;verticalAlign=top;spacingLeft=4;spacingRight=4;overflow=hidden;rotatable=0;points=[[0,0.5],[1,0.5]];portConstraint=eastwest;fontColor=#1A1A1A;fontFamily=Verdana;" parent="zkfFHV4jXpPFQw0GAbJ--17" vertex="1">
          <mxGeometry y="190" width="160" height="26" as="geometry" />
        </mxCell>
        <mxCell id="zkfFHV4jXpPFQw0GAbJ--26" value="" style="endArrow=open;shadow=0;strokeWidth=1;endFill=1;edgeStyle=elbowEdgeStyle;elbow=vertical;strokeColor=#182E3E;fontColor=#1A1A1A;labelBackgroundColor=#EEEEEE;fontFamily=Verdana;" parent="WIyWlLk6GJQsqaUBKTNV-1" source="zkfFHV4jXpPFQw0GAbJ--0" target="zkfFHV4jXpPFQw0GAbJ--17" edge="1">
          <mxGeometry x="0.5" y="41" relative="1" as="geometry">
            <mxPoint x="1690" y="1822" as="sourcePoint" />
            <mxPoint x="1850" y="1822" as="targetPoint" />
            <mxPoint x="-40" y="32" as="offset" />
          </mxGeometry>
        </mxCell>
        <mxCell id="zkfFHV4jXpPFQw0GAbJ--27" value="0..1" style="resizable=0;align=left;verticalAlign=bottom;labelBackgroundColor=none;fontSize=12;fillColor=#F5AB50;strokeColor=#909090;fontColor=#1A1A1A;fontFamily=Verdana;" parent="zkfFHV4jXpPFQw0GAbJ--26" connectable="0" vertex="1">
          <mxGeometry x="-1" relative="1" as="geometry">
            <mxPoint y="4" as="offset" />
          </mxGeometry>
        </mxCell>
        <mxCell id="zkfFHV4jXpPFQw0GAbJ--28" value="1" style="resizable=0;align=right;verticalAlign=bottom;labelBackgroundColor=none;fontSize=12;fillColor=#F5AB50;strokeColor=#909090;fontColor=#1A1A1A;fontFamily=Verdana;" parent="zkfFHV4jXpPFQw0GAbJ--26" connectable="0" vertex="1">
          <mxGeometry x="1" relative="1" as="geometry">
            <mxPoint x="-7" y="4" as="offset" />
          </mxGeometry>
        </mxCell>
        <mxCell id="zkfFHV4jXpPFQw0GAbJ--29" value="lives at" style="text;html=1;resizable=0;points=[];;align=center;verticalAlign=middle;labelBackgroundColor=none;shadow=0;strokeWidth=1;fontSize=12;fontColor=#1A1A1A;fontFamily=Verdana;" parent="zkfFHV4jXpPFQw0GAbJ--26" vertex="1" connectable="0">
          <mxGeometry x="0.5" y="49" relative="1" as="geometry">
            <mxPoint x="-38" y="40" as="offset" />
          </mxGeometry>
        </mxCell>
        <mxCell id="52jS_4H1RukoPa2EfRk2-68" value="FOnInventoryItemChanged" style="swimlane;fontStyle=1;align=center;verticalAlign=top;childLayout=stackLayout;horizontal=1;startSize=28;horizontalStack=0;resizeParent=1;resizeLast=0;collapsible=1;marginBottom=0;shadow=0;strokeWidth=1;fillColor=#F5AB50;strokeColor=#909090;fontColor=#1A1A1A;direction=east;fontFamily=Verdana;" parent="WIyWlLk6GJQsqaUBKTNV-1" vertex="1">
          <mxGeometry x="360" y="40" width="200" height="93" as="geometry">
            <mxRectangle x="230" y="140" width="160" height="26" as="alternateBounds" />
          </mxGeometry>
        </mxCell>
        <mxCell id="52jS_4H1RukoPa2EfRk2-69" value=" " style="text;align=left;verticalAlign=top;spacingLeft=4;spacingRight=4;overflow=hidden;rotatable=0;points=[[0,0.5],[1,0.5]];portConstraint=eastwest;fontColor=#1A1A1A;fontFamily=Verdana;" parent="52jS_4H1RukoPa2EfRk2-68" vertex="1">
          <mxGeometry y="28" width="200" height="26" as="geometry" />
        </mxCell>
        <mxCell id="52jS_4H1RukoPa2EfRk2-70" value="" style="line;html=1;strokeWidth=1;align=left;verticalAlign=middle;spacingTop=-1;spacingLeft=3;spacingRight=3;rotatable=0;labelPosition=right;points=[];portConstraint=eastwest;fillColor=#F5AB50;strokeColor=#909090;fontColor=#1A1A1A;labelBackgroundColor=#EEEEEE;fontFamily=Verdana;" parent="52jS_4H1RukoPa2EfRk2-68" vertex="1">
          <mxGeometry y="54" width="200" height="8" as="geometry" />
        </mxCell>
        <mxCell id="52jS_4H1RukoPa2EfRk2-71" value="Broadcast" style="text;align=left;verticalAlign=top;spacingLeft=4;spacingRight=4;overflow=hidden;rotatable=0;points=[[0,0.5],[1,0.5]];portConstraint=eastwest;fontColor=#1A1A1A;fontFamily=Verdana;" parent="52jS_4H1RukoPa2EfRk2-68" vertex="1">
          <mxGeometry y="62" width="200" height="26" as="geometry" />
        </mxCell>
        <mxCell id="52jS_4H1RukoPa2EfRk2-72" value="FOnInventoryItemChangedNative" style="swimlane;fontStyle=1;align=center;verticalAlign=top;childLayout=stackLayout;horizontal=1;startSize=30;horizontalStack=0;resizeParent=1;resizeLast=0;collapsible=1;marginBottom=0;shadow=0;strokeWidth=1;fillColor=#F5AB50;strokeColor=#909090;fontColor=#1A1A1A;direction=east;fontFamily=Verdana;" parent="WIyWlLk6GJQsqaUBKTNV-1" vertex="1">
          <mxGeometry x="600" y="40" width="240" height="94" as="geometry">
            <mxRectangle x="230" y="140" width="160" height="26" as="alternateBounds" />
          </mxGeometry>
        </mxCell>
        <mxCell id="52jS_4H1RukoPa2EfRk2-73" value=" " style="text;align=left;verticalAlign=top;spacingLeft=4;spacingRight=4;overflow=hidden;rotatable=0;points=[[0,0.5],[1,0.5]];portConstraint=eastwest;fontColor=#1A1A1A;fontFamily=Verdana;" parent="52jS_4H1RukoPa2EfRk2-72" vertex="1">
          <mxGeometry y="30" width="240" height="26" as="geometry" />
        </mxCell>
        <mxCell id="52jS_4H1RukoPa2EfRk2-74" value="" style="line;html=1;strokeWidth=1;align=left;verticalAlign=middle;spacingTop=-1;spacingLeft=3;spacingRight=3;rotatable=0;labelPosition=right;points=[];portConstraint=eastwest;fillColor=#F5AB50;strokeColor=#909090;fontColor=#1A1A1A;labelBackgroundColor=#EEEEEE;fontFamily=Verdana;" parent="52jS_4H1RukoPa2EfRk2-72" vertex="1">
          <mxGeometry y="56" width="240" height="8" as="geometry" />
        </mxCell>
        <mxCell id="52jS_4H1RukoPa2EfRk2-75" value="Broadcast" style="text;align=left;verticalAlign=top;spacingLeft=4;spacingRight=4;overflow=hidden;rotatable=0;points=[[0,0.5],[1,0.5]];portConstraint=eastwest;fontColor=#1A1A1A;fontFamily=Verdana;" parent="52jS_4H1RukoPa2EfRk2-72" vertex="1">
          <mxGeometry y="64" width="240" height="26" as="geometry" />
        </mxCell>
        <mxCell id="52jS_4H1RukoPa2EfRk2-76" value="FOnSlottedItemChanged" style="swimlane;fontStyle=1;align=center;verticalAlign=top;childLayout=stackLayout;horizontal=1;startSize=30;horizontalStack=0;resizeParent=1;resizeLast=0;collapsible=1;marginBottom=0;shadow=0;strokeWidth=1;fillColor=#F5AB50;strokeColor=#909090;fontColor=#1A1A1A;direction=east;fontFamily=Verdana;" parent="WIyWlLk6GJQsqaUBKTNV-1" vertex="1">
          <mxGeometry x="880" y="40" width="240" height="94" as="geometry">
            <mxRectangle x="230" y="140" width="160" height="26" as="alternateBounds" />
          </mxGeometry>
        </mxCell>
        <mxCell id="52jS_4H1RukoPa2EfRk2-77" value=" " style="text;align=left;verticalAlign=top;spacingLeft=4;spacingRight=4;overflow=hidden;rotatable=0;points=[[0,0.5],[1,0.5]];portConstraint=eastwest;fontColor=#1A1A1A;fontFamily=Verdana;" parent="52jS_4H1RukoPa2EfRk2-76" vertex="1">
          <mxGeometry y="30" width="240" height="26" as="geometry" />
        </mxCell>
        <mxCell id="52jS_4H1RukoPa2EfRk2-78" value="" style="line;html=1;strokeWidth=1;align=left;verticalAlign=middle;spacingTop=-1;spacingLeft=3;spacingRight=3;rotatable=0;labelPosition=right;points=[];portConstraint=eastwest;fillColor=#F5AB50;strokeColor=#909090;fontColor=#1A1A1A;labelBackgroundColor=#EEEEEE;fontFamily=Verdana;" parent="52jS_4H1RukoPa2EfRk2-76" vertex="1">
          <mxGeometry y="56" width="240" height="8" as="geometry" />
        </mxCell>
        <mxCell id="52jS_4H1RukoPa2EfRk2-79" value="Broadcast" style="text;align=left;verticalAlign=top;spacingLeft=4;spacingRight=4;overflow=hidden;rotatable=0;points=[[0,0.5],[1,0.5]];portConstraint=eastwest;fontColor=#1A1A1A;fontFamily=Verdana;" parent="52jS_4H1RukoPa2EfRk2-76" vertex="1">
          <mxGeometry y="64" width="240" height="26" as="geometry" />
        </mxCell>
        <mxCell id="52jS_4H1RukoPa2EfRk2-80" value="FOnSlottedItemChangedNative" style="swimlane;fontStyle=1;align=center;verticalAlign=top;childLayout=stackLayout;horizontal=1;startSize=30;horizontalStack=0;resizeParent=1;resizeLast=0;collapsible=1;marginBottom=0;shadow=0;strokeWidth=1;fillColor=#F5AB50;strokeColor=#909090;fontColor=#1A1A1A;direction=east;fontFamily=Verdana;" parent="WIyWlLk6GJQsqaUBKTNV-1" vertex="1">
          <mxGeometry x="1160" y="40" width="240" height="94" as="geometry">
            <mxRectangle x="230" y="140" width="160" height="26" as="alternateBounds" />
          </mxGeometry>
        </mxCell>
        <mxCell id="52jS_4H1RukoPa2EfRk2-81" value=" " style="text;align=left;verticalAlign=top;spacingLeft=4;spacingRight=4;overflow=hidden;rotatable=0;points=[[0,0.5],[1,0.5]];portConstraint=eastwest;fontColor=#1A1A1A;fontFamily=Verdana;" parent="52jS_4H1RukoPa2EfRk2-80" vertex="1">
          <mxGeometry y="30" width="240" height="26" as="geometry" />
        </mxCell>
        <mxCell id="52jS_4H1RukoPa2EfRk2-82" value="" style="line;html=1;strokeWidth=1;align=left;verticalAlign=middle;spacingTop=-1;spacingLeft=3;spacingRight=3;rotatable=0;labelPosition=right;points=[];portConstraint=eastwest;fillColor=#F5AB50;strokeColor=#909090;fontColor=#1A1A1A;labelBackgroundColor=#EEEEEE;fontFamily=Verdana;" parent="52jS_4H1RukoPa2EfRk2-80" vertex="1">
          <mxGeometry y="56" width="240" height="8" as="geometry" />
        </mxCell>
        <mxCell id="52jS_4H1RukoPa2EfRk2-83" value="Broadcast" style="text;align=left;verticalAlign=top;spacingLeft=4;spacingRight=4;overflow=hidden;rotatable=0;points=[[0,0.5],[1,0.5]];portConstraint=eastwest;fontColor=#1A1A1A;fontFamily=Verdana;" parent="52jS_4H1RukoPa2EfRk2-80" vertex="1">
          <mxGeometry y="64" width="240" height="26" as="geometry" />
        </mxCell>
        <mxCell id="52jS_4H1RukoPa2EfRk2-84" value="FOnInventoryLoaded" style="swimlane;fontStyle=1;align=center;verticalAlign=top;childLayout=stackLayout;horizontal=1;startSize=30;horizontalStack=0;resizeParent=1;resizeLast=0;collapsible=1;marginBottom=0;shadow=0;strokeWidth=1;fillColor=#F5AB50;strokeColor=#909090;fontColor=#1A1A1A;direction=east;fontFamily=Verdana;" parent="WIyWlLk6GJQsqaUBKTNV-1" vertex="1">
          <mxGeometry x="1440" y="39" width="200" height="94" as="geometry">
            <mxRectangle x="230" y="140" width="160" height="26" as="alternateBounds" />
          </mxGeometry>
        </mxCell>
        <mxCell id="52jS_4H1RukoPa2EfRk2-85" value=" " style="text;align=left;verticalAlign=top;spacingLeft=4;spacingRight=4;overflow=hidden;rotatable=0;points=[[0,0.5],[1,0.5]];portConstraint=eastwest;fontColor=#1A1A1A;fontFamily=Verdana;" parent="52jS_4H1RukoPa2EfRk2-84" vertex="1">
          <mxGeometry y="30" width="200" height="26" as="geometry" />
        </mxCell>
        <mxCell id="52jS_4H1RukoPa2EfRk2-86" value="" style="line;html=1;strokeWidth=1;align=left;verticalAlign=middle;spacingTop=-1;spacingLeft=3;spacingRight=3;rotatable=0;labelPosition=right;points=[];portConstraint=eastwest;fillColor=#F5AB50;strokeColor=#909090;fontColor=#1A1A1A;labelBackgroundColor=#EEEEEE;fontFamily=Verdana;" parent="52jS_4H1RukoPa2EfRk2-84" vertex="1">
          <mxGeometry y="56" width="200" height="8" as="geometry" />
        </mxCell>
        <mxCell id="52jS_4H1RukoPa2EfRk2-87" value="Broadcast" style="text;align=left;verticalAlign=top;spacingLeft=4;spacingRight=4;overflow=hidden;rotatable=0;points=[[0,0.5],[1,0.5]];portConstraint=eastwest;fontColor=#1A1A1A;fontFamily=Verdana;" parent="52jS_4H1RukoPa2EfRk2-84" vertex="1">
          <mxGeometry y="64" width="200" height="26" as="geometry" />
        </mxCell>
        <mxCell id="52jS_4H1RukoPa2EfRk2-88" value="FOnInventoryLoadedNative" style="swimlane;fontStyle=1;align=center;verticalAlign=top;childLayout=stackLayout;horizontal=1;startSize=30;horizontalStack=0;resizeParent=1;resizeLast=0;collapsible=1;marginBottom=0;shadow=0;strokeWidth=1;fillColor=#F5AB50;strokeColor=#909090;fontColor=#1A1A1A;direction=east;fontFamily=Verdana;" parent="WIyWlLk6GJQsqaUBKTNV-1" vertex="1">
          <mxGeometry x="1680" y="40" width="200" height="94" as="geometry">
            <mxRectangle x="230" y="140" width="160" height="26" as="alternateBounds" />
          </mxGeometry>
        </mxCell>
        <mxCell id="52jS_4H1RukoPa2EfRk2-89" value=" " style="text;align=left;verticalAlign=top;spacingLeft=4;spacingRight=4;overflow=hidden;rotatable=0;points=[[0,0.5],[1,0.5]];portConstraint=eastwest;fontColor=#1A1A1A;fontFamily=Verdana;" parent="52jS_4H1RukoPa2EfRk2-88" vertex="1">
          <mxGeometry y="30" width="200" height="26" as="geometry" />
        </mxCell>
        <mxCell id="52jS_4H1RukoPa2EfRk2-90" value="" style="line;html=1;strokeWidth=1;align=left;verticalAlign=middle;spacingTop=-1;spacingLeft=3;spacingRight=3;rotatable=0;labelPosition=right;points=[];portConstraint=eastwest;fillColor=#F5AB50;strokeColor=#909090;fontColor=#1A1A1A;labelBackgroundColor=#EEEEEE;fontFamily=Verdana;" parent="52jS_4H1RukoPa2EfRk2-88" vertex="1">
          <mxGeometry y="56" width="200" height="8" as="geometry" />
        </mxCell>
        <mxCell id="52jS_4H1RukoPa2EfRk2-91" value="Broadcast" style="text;align=left;verticalAlign=top;spacingLeft=4;spacingRight=4;overflow=hidden;rotatable=0;points=[[0,0.5],[1,0.5]];portConstraint=eastwest;fontColor=#1A1A1A;fontFamily=Verdana;" parent="52jS_4H1RukoPa2EfRk2-88" vertex="1">
          <mxGeometry y="64" width="200" height="26" as="geometry" />
        </mxCell>
        <mxCell id="52jS_4H1RukoPa2EfRk2-92" value="FOnSaveGameLoaded" style="swimlane;fontStyle=1;align=center;verticalAlign=top;childLayout=stackLayout;horizontal=1;startSize=30;horizontalStack=0;resizeParent=1;resizeLast=0;collapsible=1;marginBottom=0;shadow=0;strokeWidth=1;fillColor=#F5AB50;strokeColor=#909090;fontColor=#1A1A1A;direction=east;fontFamily=Verdana;" parent="WIyWlLk6GJQsqaUBKTNV-1" vertex="1">
          <mxGeometry x="-0.060000000000001275" y="1068" width="200" height="94" as="geometry">
            <mxRectangle x="230" y="140" width="160" height="26" as="alternateBounds" />
          </mxGeometry>
        </mxCell>
        <mxCell id="52jS_4H1RukoPa2EfRk2-93" value=" " style="text;align=left;verticalAlign=top;spacingLeft=4;spacingRight=4;overflow=hidden;rotatable=0;points=[[0,0.5],[1,0.5]];portConstraint=eastwest;fontColor=#1A1A1A;fontFamily=Verdana;" parent="52jS_4H1RukoPa2EfRk2-92" vertex="1">
          <mxGeometry y="30" width="200" height="26" as="geometry" />
        </mxCell>
        <mxCell id="52jS_4H1RukoPa2EfRk2-94" value="" style="line;html=1;strokeWidth=1;align=left;verticalAlign=middle;spacingTop=-1;spacingLeft=3;spacingRight=3;rotatable=0;labelPosition=right;points=[];portConstraint=eastwest;fillColor=#F5AB50;strokeColor=#909090;fontColor=#1A1A1A;labelBackgroundColor=#EEEEEE;fontFamily=Verdana;" parent="52jS_4H1RukoPa2EfRk2-92" vertex="1">
          <mxGeometry y="56" width="200" height="8" as="geometry" />
        </mxCell>
        <mxCell id="52jS_4H1RukoPa2EfRk2-95" value="Broadcast()" style="text;align=left;verticalAlign=top;spacingLeft=4;spacingRight=4;overflow=hidden;rotatable=0;points=[[0,0.5],[1,0.5]];portConstraint=eastwest;fontColor=#1A1A1A;fontFamily=Verdana;" parent="52jS_4H1RukoPa2EfRk2-92" vertex="1">
          <mxGeometry y="64" width="200" height="26" as="geometry" />
        </mxCell>
        <mxCell id="52jS_4H1RukoPa2EfRk2-96" value="FOnSaveGameLoadedNative" style="swimlane;fontStyle=1;align=center;verticalAlign=top;childLayout=stackLayout;horizontal=1;startSize=30;horizontalStack=0;resizeParent=1;resizeLast=0;collapsible=1;marginBottom=0;shadow=0;strokeWidth=1;fillColor=#F5AB50;strokeColor=#909090;fontColor=#1A1A1A;direction=east;fontFamily=Verdana;" parent="WIyWlLk6GJQsqaUBKTNV-1" vertex="1">
          <mxGeometry x="-0.05999999999999772" y="1196" width="200" height="94" as="geometry">
            <mxRectangle x="230" y="140" width="160" height="26" as="alternateBounds" />
          </mxGeometry>
        </mxCell>
        <mxCell id="52jS_4H1RukoPa2EfRk2-97" value=" " style="text;align=left;verticalAlign=top;spacingLeft=4;spacingRight=4;overflow=hidden;rotatable=0;points=[[0,0.5],[1,0.5]];portConstraint=eastwest;fontColor=#1A1A1A;fontFamily=Verdana;" parent="52jS_4H1RukoPa2EfRk2-96" vertex="1">
          <mxGeometry y="30" width="200" height="26" as="geometry" />
        </mxCell>
        <mxCell id="52jS_4H1RukoPa2EfRk2-98" value="" style="line;html=1;strokeWidth=1;align=left;verticalAlign=middle;spacingTop=-1;spacingLeft=3;spacingRight=3;rotatable=0;labelPosition=right;points=[];portConstraint=eastwest;fillColor=#F5AB50;strokeColor=#909090;fontColor=#1A1A1A;labelBackgroundColor=#EEEEEE;fontFamily=Verdana;" parent="52jS_4H1RukoPa2EfRk2-96" vertex="1">
          <mxGeometry y="56" width="200" height="8" as="geometry" />
        </mxCell>
        <mxCell id="52jS_4H1RukoPa2EfRk2-99" value="Broadcast()" style="text;align=left;verticalAlign=top;spacingLeft=4;spacingRight=4;overflow=hidden;rotatable=0;points=[[0,0.5],[1,0.5]];portConstraint=eastwest;fontColor=#1A1A1A;fontFamily=Verdana;" parent="52jS_4H1RukoPa2EfRk2-96" vertex="1">
          <mxGeometry y="64" width="200" height="26" as="geometry" />
        </mxCell>
        <mxCell id="52jS_4H1RukoPa2EfRk2-160" style="edgeStyle=orthogonalEdgeStyle;rounded=0;orthogonalLoop=1;jettySize=auto;html=1;exitX=0.5;exitY=0;exitDx=0;exitDy=0;entryX=0.5;entryY=1;entryDx=0;entryDy=0;fontFamily=Verdana;endArrow=block;endFill=0;startSize=6;strokeWidth=2;sourcePerimeterSpacing=0;jumpSize=6;" parent="WIyWlLk6GJQsqaUBKTNV-1" source="52jS_4H1RukoPa2EfRk2-100" target="52jS_4H1RukoPa2EfRk2-157" edge="1">
          <mxGeometry relative="1" as="geometry" />
        </mxCell>
        <mxCell id="52jS_4H1RukoPa2EfRk2-100" value="URPGGameInstaceBase" style="swimlane;fontStyle=1;align=center;verticalAlign=top;childLayout=stackLayout;horizontal=1;startSize=26;horizontalStack=0;resizeParent=1;resizeLast=0;collapsible=1;marginBottom=0;shadow=0;strokeWidth=1;fillColor=#F5AB50;strokeColor=#909090;fontColor=#1A1A1A;fontFamily=Verdana;" parent="WIyWlLk6GJQsqaUBKTNV-1" vertex="1">
          <mxGeometry x="430" y="720" width="240" height="554" as="geometry">
            <mxRectangle x="550" y="140" width="160" height="26" as="alternateBounds" />
          </mxGeometry>
        </mxCell>
        <mxCell id="52jS_4H1RukoPa2EfRk2-101" value="+DefaultInventory" style="text;align=left;verticalAlign=top;spacingLeft=4;spacingRight=4;overflow=hidden;rotatable=0;points=[[0,0.5],[1,0.5]];portConstraint=eastwest;fontFamily=Verdana;fontColor=#5A00B5;" parent="52jS_4H1RukoPa2EfRk2-100" vertex="1">
          <mxGeometry y="26" width="240" height="26" as="geometry" />
        </mxCell>
        <mxCell id="AAZlV12Gzx9VgUJV0CkU-12" value="+ItemSlotsPerType" style="text;align=left;verticalAlign=top;spacingLeft=4;spacingRight=4;overflow=hidden;rotatable=0;points=[[0,0.5],[1,0.5]];portConstraint=eastwest;fontFamily=Verdana;fontColor=#5A00B5;" vertex="1" parent="52jS_4H1RukoPa2EfRk2-100">
          <mxGeometry y="52" width="240" height="26" as="geometry" />
        </mxCell>
        <mxCell id="AAZlV12Gzx9VgUJV0CkU-13" value="+SaveSlot" style="text;align=left;verticalAlign=top;spacingLeft=4;spacingRight=4;overflow=hidden;rotatable=0;points=[[0,0.5],[1,0.5]];portConstraint=eastwest;fontFamily=Verdana;fontColor=#5A00B5;" vertex="1" parent="52jS_4H1RukoPa2EfRk2-100">
          <mxGeometry y="78" width="240" height="26" as="geometry" />
        </mxCell>
        <mxCell id="AAZlV12Gzx9VgUJV0CkU-14" value="+SaveUserIndex" style="text;align=left;verticalAlign=top;spacingLeft=4;spacingRight=4;overflow=hidden;rotatable=0;points=[[0,0.5],[1,0.5]];portConstraint=eastwest;fontFamily=Verdana;fontColor=#5A00B5;" vertex="1" parent="52jS_4H1RukoPa2EfRk2-100">
          <mxGeometry y="104" width="240" height="26" as="geometry" />
        </mxCell>
        <mxCell id="AAZlV12Gzx9VgUJV0CkU-15" value="+OnSaveGameLoaded" style="text;align=left;verticalAlign=top;spacingLeft=4;spacingRight=4;overflow=hidden;rotatable=0;points=[[0,0.5],[1,0.5]];portConstraint=eastwest;fontFamily=Verdana;fontColor=#5A00B5;" vertex="1" parent="52jS_4H1RukoPa2EfRk2-100">
          <mxGeometry y="130" width="240" height="26" as="geometry" />
        </mxCell>
        <mxCell id="AAZlV12Gzx9VgUJV0CkU-16" value="+OnSaveGameLoadedNative" style="text;align=left;verticalAlign=top;spacingLeft=4;spacingRight=4;overflow=hidden;rotatable=0;points=[[0,0.5],[1,0.5]];portConstraint=eastwest;fontFamily=Verdana;fontColor=#5A00B5;" vertex="1" parent="52jS_4H1RukoPa2EfRk2-100">
          <mxGeometry y="156" width="240" height="26" as="geometry" />
        </mxCell>
        <mxCell id="52jS_4H1RukoPa2EfRk2-117" value="#CurrentSaveGame" style="text;align=left;verticalAlign=top;spacingLeft=4;spacingRight=4;overflow=hidden;rotatable=0;points=[[0,0.5],[1,0.5]];portConstraint=eastwest;shadow=0;html=0;fontFamily=Verdana;fontColor=#5A00B5;" parent="52jS_4H1RukoPa2EfRk2-100" vertex="1">
          <mxGeometry y="182" width="240" height="26" as="geometry" />
        </mxCell>
        <mxCell id="52jS_4H1RukoPa2EfRk2-118" value="#bSavingEnabled" style="text;align=left;verticalAlign=top;spacingLeft=4;spacingRight=4;overflow=hidden;rotatable=0;points=[[0,0.5],[1,0.5]];portConstraint=eastwest;shadow=0;html=0;fontFamily=Verdana;fontColor=#5A00B5;" parent="52jS_4H1RukoPa2EfRk2-100" vertex="1">
          <mxGeometry y="208" width="240" height="26" as="geometry" />
        </mxCell>
        <mxCell id="52jS_4H1RukoPa2EfRk2-119" value="#bCurrentlySaving" style="text;align=left;verticalAlign=top;spacingLeft=4;spacingRight=4;overflow=hidden;rotatable=0;points=[[0,0.5],[1,0.5]];portConstraint=eastwest;shadow=0;html=0;fontFamily=Verdana;fontColor=#5A00B5;" parent="52jS_4H1RukoPa2EfRk2-100" vertex="1">
          <mxGeometry y="234" width="240" height="26" as="geometry" />
        </mxCell>
        <mxCell id="52jS_4H1RukoPa2EfRk2-120" value="#bPendingSaveRequested" style="text;align=left;verticalAlign=top;spacingLeft=4;spacingRight=4;overflow=hidden;rotatable=0;points=[[0,0.5],[1,0.5]];portConstraint=eastwest;shadow=0;html=0;fontFamily=Verdana;fontColor=#5A00B5;" parent="52jS_4H1RukoPa2EfRk2-100" vertex="1">
          <mxGeometry y="260" width="240" height="26" as="geometry" />
        </mxCell>
        <mxCell id="52jS_4H1RukoPa2EfRk2-106" value="" style="line;html=1;strokeWidth=1;align=left;verticalAlign=middle;spacingTop=-1;spacingLeft=3;spacingRight=3;rotatable=0;labelPosition=right;points=[];portConstraint=eastwest;fillColor=#F5AB50;strokeColor=#909090;fontColor=#1A1A1A;labelBackgroundColor=#EEEEEE;fontFamily=Verdana;" parent="52jS_4H1RukoPa2EfRk2-100" vertex="1">
          <mxGeometry y="286" width="240" height="8" as="geometry" />
        </mxCell>
        <mxCell id="52jS_4H1RukoPa2EfRk2-107" value="+void AddDefaultInventory()" style="text;align=left;verticalAlign=top;spacingLeft=4;spacingRight=4;overflow=hidden;rotatable=0;points=[[0,0.5],[1,0.5]];portConstraint=eastwest;fontFamily=Verdana;fontColor=#5A00B5;" parent="52jS_4H1RukoPa2EfRk2-100" vertex="1">
          <mxGeometry y="294" width="240" height="26" as="geometry" />
        </mxCell>
        <mxCell id="52jS_4H1RukoPa2EfRk2-108" value="+IsValidItemSlot()" style="text;align=left;verticalAlign=top;spacingLeft=4;spacingRight=4;overflow=hidden;rotatable=0;points=[[0,0.5],[1,0.5]];portConstraint=eastwest;fontFamily=Verdana;fontColor=#5A00B5;" parent="52jS_4H1RukoPa2EfRk2-100" vertex="1">
          <mxGeometry y="320" width="240" height="26" as="geometry" />
        </mxCell>
        <mxCell id="52jS_4H1RukoPa2EfRk2-110" value="+GetCurrentSaveGame()" style="text;align=left;verticalAlign=top;spacingLeft=4;spacingRight=4;overflow=hidden;rotatable=0;points=[[0,0.5],[1,0.5]];portConstraint=eastwest;fontFamily=Verdana;fontColor=#5A00B5;" parent="52jS_4H1RukoPa2EfRk2-100" vertex="1">
          <mxGeometry y="346" width="240" height="26" as="geometry" />
        </mxCell>
        <mxCell id="52jS_4H1RukoPa2EfRk2-111" value="+SetSavingEnabled()" style="text;align=left;verticalAlign=top;spacingLeft=4;spacingRight=4;overflow=hidden;rotatable=0;points=[[0,0.5],[1,0.5]];portConstraint=eastwest;fontFamily=Verdana;fontColor=#5A00B5;" parent="52jS_4H1RukoPa2EfRk2-100" vertex="1">
          <mxGeometry y="372" width="240" height="26" as="geometry" />
        </mxCell>
        <mxCell id="52jS_4H1RukoPa2EfRk2-112" value="+LoadOrCreateSaveGame()" style="text;align=left;verticalAlign=top;spacingLeft=4;spacingRight=4;overflow=hidden;rotatable=0;points=[[0,0.5],[1,0.5]];portConstraint=eastwest;fontFamily=Verdana;fontColor=#5A00B5;" parent="52jS_4H1RukoPa2EfRk2-100" vertex="1">
          <mxGeometry y="398" width="240" height="26" as="geometry" />
        </mxCell>
        <mxCell id="52jS_4H1RukoPa2EfRk2-113" value="+HandleSaveGameLoaded()" style="text;align=left;verticalAlign=top;spacingLeft=4;spacingRight=4;overflow=hidden;rotatable=0;points=[[0,0.5],[1,0.5]];portConstraint=eastwest;fontFamily=Verdana;fontColor=#5A00B5;" parent="52jS_4H1RukoPa2EfRk2-100" vertex="1">
          <mxGeometry y="424" width="240" height="26" as="geometry" />
        </mxCell>
        <mxCell id="52jS_4H1RukoPa2EfRk2-114" value="+GetSaveSlotInfo()" style="text;align=left;verticalAlign=top;spacingLeft=4;spacingRight=4;overflow=hidden;rotatable=0;points=[[0,0.5],[1,0.5]];portConstraint=eastwest;fontFamily=Verdana;fontColor=#5A00B5;" parent="52jS_4H1RukoPa2EfRk2-100" vertex="1">
          <mxGeometry y="450" width="240" height="26" as="geometry" />
        </mxCell>
        <mxCell id="52jS_4H1RukoPa2EfRk2-115" value="+WirteSaveGame()" style="text;align=left;verticalAlign=top;spacingLeft=4;spacingRight=4;overflow=hidden;rotatable=0;points=[[0,0.5],[1,0.5]];portConstraint=eastwest;fontFamily=Verdana;fontColor=#5A00B5;" parent="52jS_4H1RukoPa2EfRk2-100" vertex="1">
          <mxGeometry y="476" width="240" height="26" as="geometry" />
        </mxCell>
        <mxCell id="52jS_4H1RukoPa2EfRk2-116" value="+ResetSaveGame()" style="text;align=left;verticalAlign=top;spacingLeft=4;spacingRight=4;overflow=hidden;rotatable=0;points=[[0,0.5],[1,0.5]];portConstraint=eastwest;fontFamily=Verdana;fontColor=#5A00B5;" parent="52jS_4H1RukoPa2EfRk2-100" vertex="1">
          <mxGeometry y="502" width="240" height="26" as="geometry" />
        </mxCell>
        <mxCell id="52jS_4H1RukoPa2EfRk2-121" value="#HandleAsyncSave()" style="text;align=left;verticalAlign=top;spacingLeft=4;spacingRight=4;overflow=hidden;rotatable=0;points=[[0,0.5],[1,0.5]];portConstraint=eastwest;fontColor=#1A1A1A;fontFamily=Verdana;fontStyle=2" parent="52jS_4H1RukoPa2EfRk2-100" vertex="1">
          <mxGeometry y="528" width="240" height="26" as="geometry" />
        </mxCell>
        <mxCell id="52jS_4H1RukoPa2EfRk2-167" style="edgeStyle=orthogonalEdgeStyle;rounded=0;jumpSize=6;orthogonalLoop=1;jettySize=auto;html=1;exitX=0.5;exitY=0;exitDx=0;exitDy=0;entryX=0.5;entryY=1;entryDx=0;entryDy=0;startSize=6;sourcePerimeterSpacing=0;endArrow=block;endFill=0;strokeColor=#000000;strokeWidth=2;fontFamily=Verdana;" parent="WIyWlLk6GJQsqaUBKTNV-1" source="52jS_4H1RukoPa2EfRk2-122" target="52jS_4H1RukoPa2EfRk2-164" edge="1">
          <mxGeometry relative="1" as="geometry" />
        </mxCell>
        <mxCell id="52jS_4H1RukoPa2EfRk2-122" value="ARPGGameModeBase" style="swimlane;fontStyle=1;align=center;verticalAlign=top;childLayout=stackLayout;horizontal=1;startSize=26;horizontalStack=0;resizeParent=1;resizeLast=0;collapsible=1;marginBottom=0;shadow=0;strokeWidth=1;fillColor=#F5AB50;strokeColor=#909090;fontColor=#1A1A1A;fontFamily=Verdana;" parent="WIyWlLk6GJQsqaUBKTNV-1" vertex="1">
          <mxGeometry x="3350" y="1200" width="250" height="90" as="geometry">
            <mxRectangle x="550" y="140" width="160" height="26" as="alternateBounds" />
          </mxGeometry>
        </mxCell>
        <mxCell id="52jS_4H1RukoPa2EfRk2-123" value=" " style="text;align=left;verticalAlign=top;spacingLeft=4;spacingRight=4;overflow=hidden;rotatable=0;points=[[0,0.5],[1,0.5]];portConstraint=eastwest;fontColor=#1A1A1A;fontFamily=Verdana;" parent="52jS_4H1RukoPa2EfRk2-122" vertex="1">
          <mxGeometry y="26" width="250" height="26" as="geometry" />
        </mxCell>
        <mxCell id="52jS_4H1RukoPa2EfRk2-133" value="" style="line;html=1;strokeWidth=1;align=left;verticalAlign=middle;spacingTop=-1;spacingLeft=3;spacingRight=3;rotatable=0;labelPosition=right;points=[];portConstraint=eastwest;fillColor=#F5AB50;strokeColor=#909090;fontColor=#1A1A1A;labelBackgroundColor=#EEEEEE;fontFamily=Verdana;" parent="52jS_4H1RukoPa2EfRk2-122" vertex="1">
          <mxGeometry y="52" width="250" height="8" as="geometry" />
        </mxCell>
        <mxCell id="52jS_4H1RukoPa2EfRk2-134" value=" " style="text;align=left;verticalAlign=top;spacingLeft=4;spacingRight=4;overflow=hidden;rotatable=0;points=[[0,0.5],[1,0.5]];portConstraint=eastwest;fontColor=#1A1A1A;fontFamily=Verdana;" parent="52jS_4H1RukoPa2EfRk2-122" vertex="1">
          <mxGeometry y="60" width="250" height="26" as="geometry" />
        </mxCell>
        <mxCell id="52jS_4H1RukoPa2EfRk2-172" style="edgeStyle=orthogonalEdgeStyle;rounded=0;jumpSize=6;orthogonalLoop=1;jettySize=auto;html=1;exitX=0.5;exitY=0;exitDx=0;exitDy=0;entryX=0.5;entryY=1;entryDx=0;entryDy=0;startSize=6;sourcePerimeterSpacing=0;endArrow=block;endFill=0;strokeColor=#000000;strokeWidth=2;fontFamily=Verdana;" parent="WIyWlLk6GJQsqaUBKTNV-1" source="52jS_4H1RukoPa2EfRk2-144" target="52jS_4H1RukoPa2EfRk2-171" edge="1">
          <mxGeometry relative="1" as="geometry" />
        </mxCell>
        <mxCell id="52jS_4H1RukoPa2EfRk2-144" value="ARPGGameStateBase" style="swimlane;fontStyle=1;align=center;verticalAlign=top;childLayout=stackLayout;horizontal=1;startSize=26;horizontalStack=0;resizeParent=1;resizeLast=0;collapsible=1;marginBottom=0;shadow=0;strokeWidth=1;fillColor=#F5AB50;strokeColor=#909090;fontColor=#1A1A1A;fontFamily=Verdana;" parent="WIyWlLk6GJQsqaUBKTNV-1" vertex="1">
          <mxGeometry x="3685" y="1200" width="250" height="90" as="geometry">
            <mxRectangle x="550" y="140" width="160" height="26" as="alternateBounds" />
          </mxGeometry>
        </mxCell>
        <mxCell id="52jS_4H1RukoPa2EfRk2-145" value=" " style="text;align=left;verticalAlign=top;spacingLeft=4;spacingRight=4;overflow=hidden;rotatable=0;points=[[0,0.5],[1,0.5]];portConstraint=eastwest;fontColor=#1A1A1A;fontFamily=Verdana;" parent="52jS_4H1RukoPa2EfRk2-144" vertex="1">
          <mxGeometry y="26" width="250" height="26" as="geometry" />
        </mxCell>
        <mxCell id="52jS_4H1RukoPa2EfRk2-146" value="" style="line;html=1;strokeWidth=1;align=left;verticalAlign=middle;spacingTop=-1;spacingLeft=3;spacingRight=3;rotatable=0;labelPosition=right;points=[];portConstraint=eastwest;fillColor=#F5AB50;strokeColor=#909090;fontColor=#1A1A1A;labelBackgroundColor=#EEEEEE;fontFamily=Verdana;" parent="52jS_4H1RukoPa2EfRk2-144" vertex="1">
          <mxGeometry y="52" width="250" height="8" as="geometry" />
        </mxCell>
        <mxCell id="52jS_4H1RukoPa2EfRk2-147" value=" " style="text;align=left;verticalAlign=top;spacingLeft=4;spacingRight=4;overflow=hidden;rotatable=0;points=[[0,0.5],[1,0.5]];portConstraint=eastwest;fontColor=#1A1A1A;fontFamily=Verdana;" parent="52jS_4H1RukoPa2EfRk2-144" vertex="1">
          <mxGeometry y="60" width="250" height="26" as="geometry" />
        </mxCell>
        <mxCell id="52jS_4H1RukoPa2EfRk2-175" style="edgeStyle=orthogonalEdgeStyle;rounded=0;jumpSize=6;orthogonalLoop=1;jettySize=auto;html=1;exitX=0.5;exitY=0;exitDx=0;exitDy=0;entryX=0.5;entryY=1;entryDx=0;entryDy=0;startSize=6;sourcePerimeterSpacing=0;endArrow=block;endFill=0;strokeColor=#000000;strokeWidth=2;fontFamily=Verdana;" parent="WIyWlLk6GJQsqaUBKTNV-1" source="52jS_4H1RukoPa2EfRk2-148" target="52jS_4H1RukoPa2EfRk2-174" edge="1">
          <mxGeometry relative="1" as="geometry" />
        </mxCell>
        <mxCell id="52jS_4H1RukoPa2EfRk2-148" value="URPGSaveGame" style="swimlane;fontStyle=1;align=center;verticalAlign=top;childLayout=stackLayout;horizontal=1;startSize=26;horizontalStack=0;resizeParent=1;resizeLast=0;collapsible=1;marginBottom=0;shadow=0;strokeWidth=1;fillColor=#F5AB50;strokeColor=#909090;fontColor=#1A1A1A;fontFamily=Verdana;" parent="WIyWlLk6GJQsqaUBKTNV-1" vertex="1">
          <mxGeometry x="760" y="720" width="370" height="190" as="geometry">
            <mxRectangle x="550" y="140" width="160" height="26" as="alternateBounds" />
          </mxGeometry>
        </mxCell>
        <mxCell id="52jS_4H1RukoPa2EfRk2-149" value="+Map&lt;FPrimaryAssetId, FRPGItemData&gt; InventoryData" style="text;align=left;verticalAlign=top;spacingLeft=4;spacingRight=4;overflow=hidden;rotatable=0;points=[[0,0.5],[1,0.5]];portConstraint=eastwest;fontColor=#1A1A1A;fontFamily=Verdana;" parent="52jS_4H1RukoPa2EfRk2-148" vertex="1">
          <mxGeometry y="26" width="370" height="26" as="geometry" />
        </mxCell>
        <mxCell id="52jS_4H1RukoPa2EfRk2-152" value="+Map&lt;FRPGItemSlot, FPrimaryAssetId&gt; SlottedItems" style="text;align=left;verticalAlign=top;spacingLeft=4;spacingRight=4;overflow=hidden;rotatable=0;points=[[0,0.5],[1,0.5]];portConstraint=eastwest;fontColor=#1A1A1A;fontFamily=Verdana;" parent="52jS_4H1RukoPa2EfRk2-148" vertex="1">
          <mxGeometry y="52" width="370" height="26" as="geometry" />
        </mxCell>
        <mxCell id="52jS_4H1RukoPa2EfRk2-153" value="+FString UserId" style="text;align=left;verticalAlign=top;spacingLeft=4;spacingRight=4;overflow=hidden;rotatable=0;points=[[0,0.5],[1,0.5]];portConstraint=eastwest;fontColor=#1A1A1A;fontFamily=Verdana;" parent="52jS_4H1RukoPa2EfRk2-148" vertex="1">
          <mxGeometry y="78" width="370" height="26" as="geometry" />
        </mxCell>
        <mxCell id="52jS_4H1RukoPa2EfRk2-154" value="#Array&lt;FPrimaryAssetId&gt; InventoryItems_DEPRECATED" style="text;align=left;verticalAlign=top;spacingLeft=4;spacingRight=4;overflow=hidden;rotatable=0;points=[[0,0.5],[1,0.5]];portConstraint=eastwest;fontColor=#1A1A1A;fontFamily=Verdana;" parent="52jS_4H1RukoPa2EfRk2-148" vertex="1">
          <mxGeometry y="104" width="370" height="26" as="geometry" />
        </mxCell>
        <mxCell id="52jS_4H1RukoPa2EfRk2-155" value="#int32 SavedDataVersion" style="text;align=left;verticalAlign=top;spacingLeft=4;spacingRight=4;overflow=hidden;rotatable=0;points=[[0,0.5],[1,0.5]];portConstraint=eastwest;fontColor=#1A1A1A;fontFamily=Verdana;" parent="52jS_4H1RukoPa2EfRk2-148" vertex="1">
          <mxGeometry y="130" width="370" height="26" as="geometry" />
        </mxCell>
        <mxCell id="52jS_4H1RukoPa2EfRk2-150" value="" style="line;html=1;strokeWidth=1;align=left;verticalAlign=middle;spacingTop=-1;spacingLeft=3;spacingRight=3;rotatable=0;labelPosition=right;points=[];portConstraint=eastwest;fillColor=#F5AB50;strokeColor=#909090;fontColor=#1A1A1A;labelBackgroundColor=#EEEEEE;fontFamily=Verdana;" parent="52jS_4H1RukoPa2EfRk2-148" vertex="1">
          <mxGeometry y="156" width="370" height="8" as="geometry" />
        </mxCell>
        <mxCell id="52jS_4H1RukoPa2EfRk2-151" value="Serialize" style="text;align=left;verticalAlign=top;spacingLeft=4;spacingRight=4;overflow=hidden;rotatable=0;points=[[0,0.5],[1,0.5]];portConstraint=eastwest;fontColor=#1A1A1A;fontFamily=Verdana;" parent="52jS_4H1RukoPa2EfRk2-148" vertex="1">
          <mxGeometry y="164" width="370" height="26" as="geometry" />
        </mxCell>
        <mxCell id="52jS_4H1RukoPa2EfRk2-161" style="edgeStyle=orthogonalEdgeStyle;rounded=0;jumpSize=6;orthogonalLoop=1;jettySize=auto;html=1;exitX=0.25;exitY=0;exitDx=0;exitDy=0;entryX=0.5;entryY=1;entryDx=0;entryDy=0;startSize=6;sourcePerimeterSpacing=0;endArrow=block;endFill=0;strokeColor=#000000;strokeWidth=2;fontFamily=Verdana;" parent="WIyWlLk6GJQsqaUBKTNV-1" source="52jS_4H1RukoPa2EfRk2-157" target="52jS_4H1RukoPa2EfRk2-159" edge="1">
          <mxGeometry relative="1" as="geometry" />
        </mxCell>
        <mxCell id="52jS_4H1RukoPa2EfRk2-162" style="edgeStyle=orthogonalEdgeStyle;rounded=0;jumpSize=6;orthogonalLoop=1;jettySize=auto;html=1;exitX=0.75;exitY=0;exitDx=0;exitDy=0;entryX=0.5;entryY=1;entryDx=0;entryDy=0;startSize=6;sourcePerimeterSpacing=0;endArrow=block;endFill=0;strokeColor=#000000;strokeWidth=2;fontFamily=Verdana;" parent="WIyWlLk6GJQsqaUBKTNV-1" source="52jS_4H1RukoPa2EfRk2-157" target="52jS_4H1RukoPa2EfRk2-158" edge="1">
          <mxGeometry relative="1" as="geometry" />
        </mxCell>
        <mxCell id="52jS_4H1RukoPa2EfRk2-157" value="UGameInstance" style="html=1;fontFamily=Verdana;fillColor=#F5AB50;fontStyle=1" parent="WIyWlLk6GJQsqaUBKTNV-1" vertex="1">
          <mxGeometry x="490" y="600" width="120" height="50" as="geometry" />
        </mxCell>
        <mxCell id="52jS_4H1RukoPa2EfRk2-158" value="UObject" style="html=1;fontFamily=Verdana;fillColor=#F5AB50;fontStyle=1" parent="WIyWlLk6GJQsqaUBKTNV-1" vertex="1">
          <mxGeometry x="1890" y="370" width="210" height="50" as="geometry" />
        </mxCell>
        <mxCell id="52jS_4H1RukoPa2EfRk2-179" style="edgeStyle=orthogonalEdgeStyle;rounded=0;jumpSize=6;orthogonalLoop=1;jettySize=auto;html=1;exitX=1;exitY=0.5;exitDx=0;exitDy=0;entryX=0.5;entryY=1;entryDx=0;entryDy=0;entryPerimeter=0;startSize=6;sourcePerimeterSpacing=0;endArrow=none;endFill=0;strokeColor=#000000;strokeWidth=1;fontFamily=Verdana;dashed=1;" parent="WIyWlLk6GJQsqaUBKTNV-1" source="52jS_4H1RukoPa2EfRk2-159" target="52jS_4H1RukoPa2EfRk2-178" edge="1">
          <mxGeometry relative="1" as="geometry" />
        </mxCell>
        <mxCell id="52jS_4H1RukoPa2EfRk2-159" value="FExec" style="html=1;fontFamily=Verdana;fillColor=#F5AB50;fontStyle=1" parent="WIyWlLk6GJQsqaUBKTNV-1" vertex="1">
          <mxGeometry x="360" y="360" width="100" height="50" as="geometry" />
        </mxCell>
        <mxCell id="52jS_4H1RukoPa2EfRk2-168" style="edgeStyle=orthogonalEdgeStyle;rounded=0;jumpSize=6;orthogonalLoop=1;jettySize=auto;html=1;exitX=0.5;exitY=0;exitDx=0;exitDy=0;entryX=0.5;entryY=1;entryDx=0;entryDy=0;startSize=6;sourcePerimeterSpacing=0;endArrow=block;endFill=0;strokeColor=#000000;strokeWidth=2;fontFamily=Verdana;" parent="WIyWlLk6GJQsqaUBKTNV-1" source="52jS_4H1RukoPa2EfRk2-164" target="52jS_4H1RukoPa2EfRk2-165" edge="1">
          <mxGeometry relative="1" as="geometry" />
        </mxCell>
        <mxCell id="52jS_4H1RukoPa2EfRk2-164" value="AGameModeBase" style="html=1;fontFamily=Verdana;fillColor=#F5AB50;fontStyle=1" parent="WIyWlLk6GJQsqaUBKTNV-1" vertex="1">
          <mxGeometry x="3415" y="1050" width="120" height="50" as="geometry" />
        </mxCell>
        <mxCell id="52jS_4H1RukoPa2EfRk2-169" style="edgeStyle=orthogonalEdgeStyle;rounded=0;jumpSize=6;orthogonalLoop=1;jettySize=auto;html=1;exitX=0.5;exitY=0;exitDx=0;exitDy=0;entryX=0.5;entryY=1;entryDx=0;entryDy=0;startSize=6;sourcePerimeterSpacing=0;endArrow=block;endFill=0;strokeColor=#000000;strokeWidth=2;fontFamily=Verdana;" parent="WIyWlLk6GJQsqaUBKTNV-1" source="52jS_4H1RukoPa2EfRk2-165" target="52jS_4H1RukoPa2EfRk2-166" edge="1">
          <mxGeometry relative="1" as="geometry" />
        </mxCell>
        <mxCell id="52jS_4H1RukoPa2EfRk2-165" value="AInfo" style="html=1;fontFamily=Verdana;fillColor=#F5AB50;fontStyle=1" parent="WIyWlLk6GJQsqaUBKTNV-1" vertex="1">
          <mxGeometry x="3582.5" y="810" width="120" height="50" as="geometry" />
        </mxCell>
        <mxCell id="52jS_4H1RukoPa2EfRk2-214" style="edgeStyle=orthogonalEdgeStyle;rounded=0;jumpSize=6;orthogonalLoop=1;jettySize=auto;html=1;exitX=0.5;exitY=0;exitDx=0;exitDy=0;entryX=0.5;entryY=1;entryDx=0;entryDy=0;startSize=6;sourcePerimeterSpacing=0;endArrow=block;endFill=0;strokeColor=#000000;strokeWidth=2;fontFamily=Verdana;" parent="WIyWlLk6GJQsqaUBKTNV-1" source="52jS_4H1RukoPa2EfRk2-166" target="52jS_4H1RukoPa2EfRk2-158" edge="1">
          <mxGeometry relative="1" as="geometry" />
        </mxCell>
        <mxCell id="52jS_4H1RukoPa2EfRk2-166" value="AActor" style="html=1;fontFamily=Verdana;fillColor=#F5AB50;fontStyle=1" parent="WIyWlLk6GJQsqaUBKTNV-1" vertex="1">
          <mxGeometry x="3582.5" y="600" width="120" height="50" as="geometry" />
        </mxCell>
        <mxCell id="52jS_4H1RukoPa2EfRk2-173" style="edgeStyle=orthogonalEdgeStyle;rounded=0;jumpSize=6;orthogonalLoop=1;jettySize=auto;html=1;exitX=0.5;exitY=0;exitDx=0;exitDy=0;entryX=0.5;entryY=1;entryDx=0;entryDy=0;startSize=6;sourcePerimeterSpacing=0;endArrow=block;endFill=0;strokeColor=#000000;strokeWidth=2;fontFamily=Verdana;" parent="WIyWlLk6GJQsqaUBKTNV-1" source="52jS_4H1RukoPa2EfRk2-171" target="52jS_4H1RukoPa2EfRk2-165" edge="1">
          <mxGeometry relative="1" as="geometry" />
        </mxCell>
        <mxCell id="52jS_4H1RukoPa2EfRk2-171" value="AGameStateBase" style="html=1;fontFamily=Verdana;fillColor=#F5AB50;fontStyle=1" parent="WIyWlLk6GJQsqaUBKTNV-1" vertex="1">
          <mxGeometry x="3750" y="1050" width="120" height="50" as="geometry" />
        </mxCell>
        <mxCell id="52jS_4H1RukoPa2EfRk2-176" style="edgeStyle=orthogonalEdgeStyle;rounded=0;jumpSize=6;orthogonalLoop=1;jettySize=auto;html=1;exitX=0.5;exitY=0;exitDx=0;exitDy=0;startSize=6;sourcePerimeterSpacing=0;endArrow=block;endFill=0;strokeColor=#000000;strokeWidth=2;fontFamily=Verdana;" parent="WIyWlLk6GJQsqaUBKTNV-1" source="52jS_4H1RukoPa2EfRk2-174" target="52jS_4H1RukoPa2EfRk2-158" edge="1">
          <mxGeometry relative="1" as="geometry" />
        </mxCell>
        <mxCell id="52jS_4H1RukoPa2EfRk2-174" value="USaveGame" style="html=1;fontFamily=Verdana;fillColor=#F5AB50;fontStyle=1" parent="WIyWlLk6GJQsqaUBKTNV-1" vertex="1">
          <mxGeometry x="885" y="600" width="120" height="50" as="geometry" />
        </mxCell>
        <mxCell id="52jS_4H1RukoPa2EfRk2-178" value="// Any object&amp;nbsp;&lt;span&gt;that is capable of taking commands&lt;/span&gt;" style="shape=note;whiteSpace=wrap;html=1;backgroundOutline=1;darkOpacity=0.05;fillColor=#ffcc99;fontFamily=Verdana;strokeColor=#36393d;align=left;" parent="WIyWlLk6GJQsqaUBKTNV-1" vertex="1">
          <mxGeometry x="410" y="280" width="340" height="50" as="geometry" />
        </mxCell>
        <mxCell id="52jS_4H1RukoPa2EfRk2-191" style="edgeStyle=orthogonalEdgeStyle;rounded=0;jumpSize=6;orthogonalLoop=1;jettySize=auto;html=1;exitX=0.5;exitY=0;exitDx=0;exitDy=0;entryX=0.5;entryY=1;entryDx=0;entryDy=0;startSize=6;sourcePerimeterSpacing=0;endArrow=block;endFill=0;strokeColor=#000000;strokeWidth=2;fontFamily=Verdana;" parent="WIyWlLk6GJQsqaUBKTNV-1" source="52jS_4H1RukoPa2EfRk2-180" target="52jS_4H1RukoPa2EfRk2-188" edge="1">
          <mxGeometry relative="1" as="geometry" />
        </mxCell>
        <mxCell id="52jS_4H1RukoPa2EfRk2-180" value="URPGAssetManager" style="swimlane;fontStyle=1;align=center;verticalAlign=top;childLayout=stackLayout;horizontal=1;startSize=26;horizontalStack=0;resizeParent=1;resizeLast=0;collapsible=1;marginBottom=0;shadow=0;strokeWidth=1;fillColor=#F5AB50;strokeColor=#909090;fontColor=#1A1A1A;fontFamily=Verdana;" parent="WIyWlLk6GJQsqaUBKTNV-1" vertex="1">
          <mxGeometry x="2540" y="840" width="565" height="190" as="geometry">
            <mxRectangle x="550" y="140" width="160" height="26" as="alternateBounds" />
          </mxGeometry>
        </mxCell>
        <mxCell id="52jS_4H1RukoPa2EfRk2-181" value="+FPrimaryAssetType PotionItemType" style="text;align=left;verticalAlign=top;spacingLeft=4;spacingRight=4;overflow=hidden;rotatable=0;points=[[0,0.5],[1,0.5]];portConstraint=eastwest;fontColor=#1A1A1A;fontFamily=Verdana;" parent="52jS_4H1RukoPa2EfRk2-180" vertex="1">
          <mxGeometry y="26" width="565" height="26" as="geometry" />
        </mxCell>
        <mxCell id="52jS_4H1RukoPa2EfRk2-182" value="+FPrimaryAssetType SkillItemType" style="text;align=left;verticalAlign=top;spacingLeft=4;spacingRight=4;overflow=hidden;rotatable=0;points=[[0,0.5],[1,0.5]];portConstraint=eastwest;fontColor=#1A1A1A;fontFamily=Verdana;" parent="52jS_4H1RukoPa2EfRk2-180" vertex="1">
          <mxGeometry y="52" width="565" height="26" as="geometry" />
        </mxCell>
        <mxCell id="52jS_4H1RukoPa2EfRk2-183" value="+FPrimaryAssetType TokenItemType" style="text;align=left;verticalAlign=top;spacingLeft=4;spacingRight=4;overflow=hidden;rotatable=0;points=[[0,0.5],[1,0.5]];portConstraint=eastwest;fontColor=#1A1A1A;fontFamily=Verdana;" parent="52jS_4H1RukoPa2EfRk2-180" vertex="1">
          <mxGeometry y="78" width="565" height="26" as="geometry" />
        </mxCell>
        <mxCell id="52jS_4H1RukoPa2EfRk2-184" value="+FPrimaryAssetType WeaponItemType" style="text;align=left;verticalAlign=top;spacingLeft=4;spacingRight=4;overflow=hidden;rotatable=0;points=[[0,0.5],[1,0.5]];portConstraint=eastwest;fontColor=#1A1A1A;fontFamily=Verdana;" parent="52jS_4H1RukoPa2EfRk2-180" vertex="1">
          <mxGeometry y="104" width="565" height="26" as="geometry" />
        </mxCell>
        <mxCell id="52jS_4H1RukoPa2EfRk2-186" value="" style="line;html=1;strokeWidth=1;align=left;verticalAlign=middle;spacingTop=-1;spacingLeft=3;spacingRight=3;rotatable=0;labelPosition=right;points=[];portConstraint=eastwest;fillColor=#F5AB50;strokeColor=#909090;fontColor=#1A1A1A;labelBackgroundColor=#EEEEEE;fontFamily=Verdana;" parent="52jS_4H1RukoPa2EfRk2-180" vertex="1">
          <mxGeometry y="130" width="565" height="8" as="geometry" />
        </mxCell>
        <mxCell id="52jS_4H1RukoPa2EfRk2-187" value="+URPGAssetManager&amp; Get()" style="text;align=left;verticalAlign=top;spacingLeft=4;spacingRight=4;overflow=hidden;rotatable=0;points=[[0,0.5],[1,0.5]];portConstraint=eastwest;fontColor=#1A1A1A;fontFamily=Verdana;" parent="52jS_4H1RukoPa2EfRk2-180" vertex="1">
          <mxGeometry y="138" width="565" height="26" as="geometry" />
        </mxCell>
        <mxCell id="52jS_4H1RukoPa2EfRk2-192" value="+URPGItem* ForceLoadItem(FPrimaryAssetId&amp; PrimaryAssetId, boolbLogWarning = true)" style="text;align=left;verticalAlign=top;spacingLeft=4;spacingRight=4;overflow=hidden;rotatable=0;points=[[0,0.5],[1,0.5]];portConstraint=eastwest;fontColor=#1A1A1A;fontFamily=Verdana;" parent="52jS_4H1RukoPa2EfRk2-180" vertex="1">
          <mxGeometry y="164" width="565" height="26" as="geometry" />
        </mxCell>
        <mxCell id="52jS_4H1RukoPa2EfRk2-189" style="edgeStyle=orthogonalEdgeStyle;rounded=0;jumpSize=6;orthogonalLoop=1;jettySize=auto;html=1;exitX=0.5;exitY=0;exitDx=0;exitDy=0;startSize=6;sourcePerimeterSpacing=0;endArrow=block;endFill=0;strokeColor=#000000;strokeWidth=2;fontFamily=Verdana;entryX=0.5;entryY=1;entryDx=0;entryDy=0;" parent="WIyWlLk6GJQsqaUBKTNV-1" source="52jS_4H1RukoPa2EfRk2-188" target="52jS_4H1RukoPa2EfRk2-158" edge="1">
          <mxGeometry relative="1" as="geometry">
            <mxPoint x="2020" y="490" as="targetPoint" />
          </mxGeometry>
        </mxCell>
        <mxCell id="52jS_4H1RukoPa2EfRk2-188" value="UAssetManager" style="html=1;fontFamily=Verdana;fillColor=#F5AB50;fontStyle=1" parent="WIyWlLk6GJQsqaUBKTNV-1" vertex="1">
          <mxGeometry x="2762.5" y="720" width="120" height="50" as="geometry" />
        </mxCell>
        <mxCell id="AAZlV12Gzx9VgUJV0CkU-0" style="edgeStyle=orthogonalEdgeStyle;rounded=0;orthogonalLoop=1;jettySize=auto;html=1;exitX=0.5;exitY=0;exitDx=0;exitDy=0;endArrow=block;endFill=0;strokeWidth=2;fontFamily=Verdana;" edge="1" parent="WIyWlLk6GJQsqaUBKTNV-1" source="52jS_4H1RukoPa2EfRk2-193" target="52jS_4H1RukoPa2EfRk2-158">
          <mxGeometry relative="1" as="geometry" />
        </mxCell>
        <mxCell id="52jS_4H1RukoPa2EfRk2-193" value="UBlueprintFunctionLibrary" style="html=1;fontFamily=Verdana;fillColor=#F5AB50;fontStyle=1" parent="WIyWlLk6GJQsqaUBKTNV-1" vertex="1">
          <mxGeometry x="1940" y="1120" width="222.5" height="50" as="geometry" />
        </mxCell>
        <mxCell id="AAZlV12Gzx9VgUJV0CkU-1" style="edgeStyle=orthogonalEdgeStyle;rounded=0;orthogonalLoop=1;jettySize=auto;html=1;exitX=0.5;exitY=0;exitDx=0;exitDy=0;entryX=0.5;entryY=1;entryDx=0;entryDy=0;endArrow=block;endFill=0;strokeWidth=2;fontFamily=Verdana;" edge="1" parent="WIyWlLk6GJQsqaUBKTNV-1" source="52jS_4H1RukoPa2EfRk2-194" target="52jS_4H1RukoPa2EfRk2-193">
          <mxGeometry relative="1" as="geometry" />
        </mxCell>
        <mxCell id="52jS_4H1RukoPa2EfRk2-194" value="URPGBlueprintLibrary" style="swimlane;fontStyle=1;align=center;verticalAlign=top;childLayout=stackLayout;horizontal=1;startSize=26;horizontalStack=0;resizeParent=1;resizeLast=0;collapsible=1;marginBottom=0;shadow=0;strokeWidth=1;fillColor=#F5AB50;strokeColor=#909090;fontColor=#1A1A1A;fontFamily=Verdana;" parent="WIyWlLk6GJQsqaUBKTNV-1" vertex="1">
          <mxGeometry x="1670" y="1240" width="805" height="350" as="geometry">
            <mxRectangle x="842.5" y="720" width="160" height="26" as="alternateBounds" />
          </mxGeometry>
        </mxCell>
        <mxCell id="52jS_4H1RukoPa2EfRk2-199" value=" " style="text;align=left;verticalAlign=top;spacingLeft=4;spacingRight=4;overflow=hidden;rotatable=0;points=[[0,0.5],[1,0.5]];portConstraint=eastwest;fontColor=#1A1A1A;fontFamily=Verdana;" parent="52jS_4H1RukoPa2EfRk2-194" vertex="1">
          <mxGeometry y="26" width="805" height="26" as="geometry" />
        </mxCell>
        <mxCell id="52jS_4H1RukoPa2EfRk2-200" value="" style="line;html=1;strokeWidth=1;align=left;verticalAlign=middle;spacingTop=-1;spacingLeft=3;spacingRight=3;rotatable=0;labelPosition=right;points=[];portConstraint=eastwest;fillColor=#F5AB50;strokeColor=#909090;fontColor=#1A1A1A;labelBackgroundColor=#EEEEEE;fontFamily=Verdana;" parent="52jS_4H1RukoPa2EfRk2-194" vertex="1">
          <mxGeometry y="52" width="805" height="8" as="geometry" />
        </mxCell>
        <mxCell id="52jS_4H1RukoPa2EfRk2-202" value="+PlayLoadingScreen()" style="text;align=left;verticalAlign=top;spacingLeft=4;spacingRight=4;overflow=hidden;rotatable=0;points=[[0,0.5],[1,0.5]];portConstraint=eastwest;fontFamily=Verdana;fontColor=#5A00B5;" parent="52jS_4H1RukoPa2EfRk2-194" vertex="1">
          <mxGeometry y="60" width="805" height="26" as="geometry" />
        </mxCell>
        <mxCell id="52jS_4H1RukoPa2EfRk2-204" value="+StopLoadingScreen()" style="text;align=left;verticalAlign=top;spacingLeft=4;spacingRight=4;overflow=hidden;rotatable=0;points=[[0,0.5],[1,0.5]];portConstraint=eastwest;fontFamily=Verdana;fontColor=#5A00B5;" parent="52jS_4H1RukoPa2EfRk2-194" vertex="1">
          <mxGeometry y="86" width="805" height="26" as="geometry" />
        </mxCell>
        <mxCell id="52jS_4H1RukoPa2EfRk2-206" value="+IsInEditor()" style="text;align=left;verticalAlign=top;spacingLeft=4;spacingRight=4;overflow=hidden;rotatable=0;points=[[0,0.5],[1,0.5]];portConstraint=eastwest;fontFamily=Verdana;fontColor=#5A00B5;" parent="52jS_4H1RukoPa2EfRk2-194" vertex="1">
          <mxGeometry y="112" width="805" height="26" as="geometry" />
        </mxCell>
        <mxCell id="52jS_4H1RukoPa2EfRk2-208" value="+EqualEqual_RPGItemSlot()" style="text;align=left;verticalAlign=top;spacingLeft=4;spacingRight=4;overflow=hidden;rotatable=0;points=[[0,0.5],[1,0.5]];portConstraint=eastwest;fontFamily=Verdana;fontColor=#5A00B5;" parent="52jS_4H1RukoPa2EfRk2-194" vertex="1">
          <mxGeometry y="138" width="805" height="26" as="geometry" />
        </mxCell>
        <mxCell id="52jS_4H1RukoPa2EfRk2-211" value="+NotEqual_RPGItemSlot()" style="text;align=left;verticalAlign=top;spacingLeft=4;spacingRight=4;overflow=hidden;rotatable=0;points=[[0,0.5],[1,0.5]];portConstraint=eastwest;fontFamily=Verdana;fontColor=#5A00B5;" parent="52jS_4H1RukoPa2EfRk2-194" vertex="1">
          <mxGeometry y="164" width="805" height="26" as="geometry" />
        </mxCell>
        <mxCell id="AAZlV12Gzx9VgUJV0CkU-3" value="+IsValidItemSlot()" style="text;align=left;verticalAlign=top;spacingLeft=4;spacingRight=4;overflow=hidden;rotatable=0;points=[[0,0.5],[1,0.5]];portConstraint=eastwest;fontFamily=Verdana;fontColor=#5A00B5;" vertex="1" parent="52jS_4H1RukoPa2EfRk2-194">
          <mxGeometry y="190" width="805" height="26" as="geometry" />
        </mxCell>
        <mxCell id="AAZlV12Gzx9VgUJV0CkU-5" value="+DoesEffectContainerSpecHaveEffects()" style="text;align=left;verticalAlign=top;spacingLeft=4;spacingRight=4;overflow=hidden;rotatable=0;points=[[0,0.5],[1,0.5]];portConstraint=eastwest;fontFamily=Verdana;fontColor=#5A00B5;" vertex="1" parent="52jS_4H1RukoPa2EfRk2-194">
          <mxGeometry y="216" width="805" height="26" as="geometry" />
        </mxCell>
        <mxCell id="AAZlV12Gzx9VgUJV0CkU-6" value="+DoesEffectContainerSpecHaveTargets()" style="text;align=left;verticalAlign=top;spacingLeft=4;spacingRight=4;overflow=hidden;rotatable=0;points=[[0,0.5],[1,0.5]];portConstraint=eastwest;fontFamily=Verdana;fontColor=#5A00B5;" vertex="1" parent="52jS_4H1RukoPa2EfRk2-194">
          <mxGeometry y="242" width="805" height="26" as="geometry" />
        </mxCell>
        <mxCell id="AAZlV12Gzx9VgUJV0CkU-17" value="+AddTargetsToEffectContainerSpec()" style="text;align=left;verticalAlign=top;spacingLeft=4;spacingRight=4;overflow=hidden;rotatable=0;points=[[0,0.5],[1,0.5]];portConstraint=eastwest;fontFamily=Verdana;fontColor=#5A00B5;" vertex="1" parent="52jS_4H1RukoPa2EfRk2-194">
          <mxGeometry y="268" width="805" height="26" as="geometry" />
        </mxCell>
        <mxCell id="AAZlV12Gzx9VgUJV0CkU-10" value="+ApplyExternalEffectContainerSpec()" style="text;align=left;verticalAlign=top;spacingLeft=4;spacingRight=4;overflow=hidden;rotatable=0;points=[[0,0.5],[1,0.5]];portConstraint=eastwest;fontFamily=Verdana;fontColor=#5A00B5;" vertex="1" parent="52jS_4H1RukoPa2EfRk2-194">
          <mxGeometry y="294" width="805" height="26" as="geometry" />
        </mxCell>
        <mxCell id="AAZlV12Gzx9VgUJV0CkU-11" value="+GetProjectVersion()" style="text;align=left;verticalAlign=top;spacingLeft=4;spacingRight=4;overflow=hidden;rotatable=0;points=[[0,0.5],[1,0.5]];portConstraint=eastwest;fontFamily=Verdana;fontColor=#5A00B5;" vertex="1" parent="52jS_4H1RukoPa2EfRk2-194">
          <mxGeometry y="320" width="805" height="26" as="geometry" />
        </mxCell>
        <mxCell id="AAZlV12Gzx9VgUJV0CkU-27" value="«struct»&lt;br&gt;&lt;b&gt;FPrimaryAssetType&lt;/b&gt;" style="html=1;labelBackgroundColor=none;fontColor=#000000;fillColor=#F5AB50;fontFamily=Verdana;" vertex="1" parent="WIyWlLk6GJQsqaUBKTNV-1">
          <mxGeometry x="50.12" y="950" width="150" height="50" as="geometry" />
        </mxCell>
        <mxCell id="AAZlV12Gzx9VgUJV0CkU-28" value="«struct»&lt;br&gt;&lt;b&gt;FPrimaryAssetId&lt;/b&gt;" style="html=1;labelBackgroundColor=none;fontColor=#000000;fillColor=#F5AB50;fontFamily=Verdana;" vertex="1" parent="WIyWlLk6GJQsqaUBKTNV-1">
          <mxGeometry x="70.12" y="710" width="130" height="50" as="geometry" />
        </mxCell>
        <mxCell id="AAZlV12Gzx9VgUJV0CkU-29" style="edgeStyle=orthogonalEdgeStyle;rounded=0;orthogonalLoop=1;jettySize=auto;html=1;exitX=0;exitY=0.5;exitDx=0;exitDy=0;startArrow=none;startFill=0;endArrow=open;endFill=0;strokeWidth=1;fontFamily=Verdana;fontColor=#000000;entryX=1;entryY=0.5;entryDx=0;entryDy=0;" edge="1" parent="WIyWlLk6GJQsqaUBKTNV-1" source="52jS_4H1RukoPa2EfRk2-101" target="AAZlV12Gzx9VgUJV0CkU-28">
          <mxGeometry relative="1" as="geometry">
            <mxPoint x="270" y="650" as="targetPoint" />
            <Array as="points">
              <mxPoint x="250" y="759" />
              <mxPoint x="250" y="735" />
            </Array>
          </mxGeometry>
        </mxCell>
        <mxCell id="AAZlV12Gzx9VgUJV0CkU-30" style="edgeStyle=orthogonalEdgeStyle;rounded=0;orthogonalLoop=1;jettySize=auto;html=1;exitX=0;exitY=0.5;exitDx=0;exitDy=0;startArrow=none;startFill=0;endArrow=open;endFill=0;strokeWidth=1;fontFamily=Verdana;fontColor=#000000;entryX=1;entryY=0.5;entryDx=0;entryDy=0;" edge="1" parent="WIyWlLk6GJQsqaUBKTNV-1" source="AAZlV12Gzx9VgUJV0CkU-12" target="AAZlV12Gzx9VgUJV0CkU-27">
          <mxGeometry relative="1" as="geometry">
            <Array as="points">
              <mxPoint x="250" y="785" />
              <mxPoint x="250" y="975" />
            </Array>
          </mxGeometry>
        </mxCell>
        <mxCell id="AAZlV12Gzx9VgUJV0CkU-40" value="&lt;span style=&quot;font-weight: 400&quot;&gt;«struct»&lt;/span&gt;&lt;br style=&quot;font-weight: 400&quot;&gt;&lt;b&gt;FRPGItemData&lt;/b&gt;" style="swimlane;align=center;verticalAlign=middle;childLayout=stackLayout;horizontal=1;horizontalStack=0;resizeParent=1;resizeParentMax=0;resizeLast=0;collapsible=1;marginBottom=0;fillColor=#F5AB50;html=1;fontFamily=Verdana;startSize=40;aspect=fixed;" vertex="1" parent="WIyWlLk6GJQsqaUBKTNV-1">
          <mxGeometry y="558" width="199.94" height="152" as="geometry" />
        </mxCell>
        <mxCell id="AAZlV12Gzx9VgUJV0CkU-41" value="+ItemCount" style="text;strokeColor=none;fillColor=none;align=left;verticalAlign=top;spacingLeft=4;spacingRight=4;overflow=hidden;rotatable=0;points=[[0,0.5],[1,0.5]];portConstraint=eastwest;fontFamily=Verdana;fontColor=#5A00B5;" vertex="1" parent="AAZlV12Gzx9VgUJV0CkU-40">
          <mxGeometry y="40" width="199.94" height="26" as="geometry" />
        </mxCell>
        <mxCell id="AAZlV12Gzx9VgUJV0CkU-47" value="+ItemLevel" style="text;strokeColor=none;fillColor=none;align=left;verticalAlign=top;spacingLeft=4;spacingRight=4;overflow=hidden;rotatable=0;points=[[0,0.5],[1,0.5]];portConstraint=eastwest;fontFamily=Verdana;fontColor=#5A00B5;" vertex="1" parent="AAZlV12Gzx9VgUJV0CkU-40">
          <mxGeometry y="66" width="199.94" height="26" as="geometry" />
        </mxCell>
        <mxCell id="AAZlV12Gzx9VgUJV0CkU-42" value="" style="line;strokeWidth=1;fillColor=none;align=left;verticalAlign=middle;spacingTop=-1;spacingLeft=3;spacingRight=3;rotatable=0;labelPosition=right;points=[];portConstraint=eastwest;" vertex="1" parent="AAZlV12Gzx9VgUJV0CkU-40">
          <mxGeometry y="92" width="199.94" height="8" as="geometry" />
        </mxCell>
        <mxCell id="AAZlV12Gzx9VgUJV0CkU-43" value="+IsValid()" style="text;strokeColor=none;fillColor=none;align=left;verticalAlign=top;spacingLeft=4;spacingRight=4;overflow=hidden;rotatable=0;points=[[0,0.5],[1,0.5]];portConstraint=eastwest;fontFamily=Verdana;fontColor=#5A00B5;" vertex="1" parent="AAZlV12Gzx9VgUJV0CkU-40">
          <mxGeometry y="100" width="199.94" height="26" as="geometry" />
        </mxCell>
        <mxCell id="AAZlV12Gzx9VgUJV0CkU-49" value="+UpdateItemData()" style="text;strokeColor=none;fillColor=none;align=left;verticalAlign=top;spacingLeft=4;spacingRight=4;overflow=hidden;rotatable=0;points=[[0,0.5],[1,0.5]];portConstraint=eastwest;fontFamily=Verdana;fontColor=#5A00B5;" vertex="1" parent="AAZlV12Gzx9VgUJV0CkU-40">
          <mxGeometry y="126" width="199.94" height="26" as="geometry" />
        </mxCell>
        <mxCell id="AAZlV12Gzx9VgUJV0CkU-44" style="edgeStyle=orthogonalEdgeStyle;rounded=0;orthogonalLoop=1;jettySize=auto;html=1;exitX=0;exitY=0.5;exitDx=0;exitDy=0;startArrow=none;startFill=0;endArrow=open;endFill=0;strokeWidth=1;fontFamily=Verdana;fontColor=#000000;entryX=1;entryY=0.5;entryDx=0;entryDy=0;" edge="1" parent="WIyWlLk6GJQsqaUBKTNV-1" source="52jS_4H1RukoPa2EfRk2-101" target="AAZlV12Gzx9VgUJV0CkU-47">
          <mxGeometry relative="1" as="geometry">
            <mxPoint x="270" y="300" as="targetPoint" />
            <Array as="points">
              <mxPoint x="250" y="759" />
              <mxPoint x="250" y="637" />
            </Array>
          </mxGeometry>
        </mxCell>
        <mxCell id="AAZlV12Gzx9VgUJV0CkU-50" value="&lt;span style=&quot;font-weight: 400&quot;&gt;«struct»&lt;/span&gt;&lt;br style=&quot;font-weight: 400&quot;&gt;&lt;b&gt;FRPGItemSlot&lt;/b&gt;" style="swimlane;align=center;verticalAlign=middle;childLayout=stackLayout;horizontal=1;horizontalStack=0;resizeParent=1;resizeParentMax=0;resizeLast=0;collapsible=1;marginBottom=0;fillColor=#F5AB50;html=1;fontFamily=Verdana;startSize=40;aspect=fixed;" vertex="1" parent="WIyWlLk6GJQsqaUBKTNV-1">
          <mxGeometry x="0.12" y="798" width="200" height="152" as="geometry" />
        </mxCell>
        <mxCell id="AAZlV12Gzx9VgUJV0CkU-51" value="+ItemType" style="text;strokeColor=none;fillColor=none;align=left;verticalAlign=top;spacingLeft=4;spacingRight=4;overflow=hidden;rotatable=0;points=[[0,0.5],[1,0.5]];portConstraint=eastwest;fontFamily=Verdana;fontColor=#5A00B5;" vertex="1" parent="AAZlV12Gzx9VgUJV0CkU-50">
          <mxGeometry y="40" width="200" height="26" as="geometry" />
        </mxCell>
        <mxCell id="AAZlV12Gzx9VgUJV0CkU-52" value="+SlotNumber" style="text;strokeColor=none;fillColor=none;align=left;verticalAlign=top;spacingLeft=4;spacingRight=4;overflow=hidden;rotatable=0;points=[[0,0.5],[1,0.5]];portConstraint=eastwest;fontFamily=Verdana;fontColor=#5A00B5;" vertex="1" parent="AAZlV12Gzx9VgUJV0CkU-50">
          <mxGeometry y="66" width="200" height="26" as="geometry" />
        </mxCell>
        <mxCell id="AAZlV12Gzx9VgUJV0CkU-53" value="" style="line;strokeWidth=1;fillColor=none;align=left;verticalAlign=middle;spacingTop=-1;spacingLeft=3;spacingRight=3;rotatable=0;labelPosition=right;points=[];portConstraint=eastwest;" vertex="1" parent="AAZlV12Gzx9VgUJV0CkU-50">
          <mxGeometry y="92" width="200" height="8" as="geometry" />
        </mxCell>
        <mxCell id="AAZlV12Gzx9VgUJV0CkU-56" value="+IsValid()" style="text;strokeColor=none;fillColor=none;align=left;verticalAlign=top;spacingLeft=4;spacingRight=4;overflow=hidden;rotatable=0;points=[[0,0.5],[1,0.5]];portConstraint=eastwest;fontFamily=Verdana;fontColor=#5A00B5;" vertex="1" parent="AAZlV12Gzx9VgUJV0CkU-50">
          <mxGeometry y="100" width="200" height="26" as="geometry" />
        </mxCell>
        <mxCell id="AAZlV12Gzx9VgUJV0CkU-55" value="+GetTypeHash()" style="text;strokeColor=none;fillColor=none;align=left;verticalAlign=top;spacingLeft=4;spacingRight=4;overflow=hidden;rotatable=0;points=[[0,0.5],[1,0.5]];portConstraint=eastwest;fontFamily=Verdana;fontColor=#5A00B5;" vertex="1" parent="AAZlV12Gzx9VgUJV0CkU-50">
          <mxGeometry y="126" width="200" height="26" as="geometry" />
        </mxCell>
        <mxCell id="AAZlV12Gzx9VgUJV0CkU-57" style="edgeStyle=orthogonalEdgeStyle;rounded=0;orthogonalLoop=1;jettySize=auto;html=1;exitX=0;exitY=0.5;exitDx=0;exitDy=0;startArrow=none;startFill=0;endArrow=open;endFill=0;strokeWidth=1;fontFamily=Verdana;fontColor=#000000;entryX=1;entryY=0.5;entryDx=0;entryDy=0;" edge="1" parent="WIyWlLk6GJQsqaUBKTNV-1" source="AAZlV12Gzx9VgUJV0CkU-12" target="AAZlV12Gzx9VgUJV0CkU-52">
          <mxGeometry relative="1" as="geometry">
            <mxPoint x="240" y="830" as="targetPoint" />
            <Array as="points">
              <mxPoint x="250" y="785" />
              <mxPoint x="250" y="877" />
            </Array>
          </mxGeometry>
        </mxCell>
        <mxCell id="AAZlV12Gzx9VgUJV0CkU-58" style="edgeStyle=orthogonalEdgeStyle;rounded=0;orthogonalLoop=1;jettySize=auto;html=1;fontColor=#5A00B5;endArrow=open;endFill=0;strokeWidth=1;startArrow=none;startFill=0;fontFamily=Verdana;entryX=1;entryY=0.25;entryDx=0;entryDy=0;exitX=0;exitY=0.5;exitDx=0;exitDy=0;" edge="1" parent="WIyWlLk6GJQsqaUBKTNV-1" source="AAZlV12Gzx9VgUJV0CkU-16" target="52jS_4H1RukoPa2EfRk2-96">
          <mxGeometry relative="1" as="geometry">
            <mxPoint x="450" y="1275" as="sourcePoint" />
            <mxPoint x="320" y="1270" as="targetPoint" />
          </mxGeometry>
        </mxCell>
        <mxCell id="AAZlV12Gzx9VgUJV0CkU-59" value="&lt;font color=&quot;#000000&quot;&gt;&amp;lt;&amp;lt;delegate&amp;gt;&amp;gt;&lt;/font&gt;" style="edgeLabel;html=1;align=center;verticalAlign=middle;resizable=0;points=[];fontColor=#5A00B5;rotation=0;labelBackgroundColor=none;fontFamily=Verdana;" vertex="1" connectable="0" parent="AAZlV12Gzx9VgUJV0CkU-58">
          <mxGeometry x="-0.4887" relative="1" as="geometry">
            <mxPoint x="65.08" y="-40.25" as="offset" />
          </mxGeometry>
        </mxCell>
        <mxCell id="AAZlV12Gzx9VgUJV0CkU-62" style="rounded=0;orthogonalLoop=1;jettySize=auto;html=1;fontColor=#5A00B5;endArrow=open;endFill=0;strokeWidth=1;startArrow=none;startFill=0;fontFamily=Verdana;edgeStyle=orthogonalEdgeStyle;entryX=1;entryY=0.25;entryDx=0;entryDy=0;exitX=0;exitY=0.5;exitDx=0;exitDy=0;" edge="1" parent="WIyWlLk6GJQsqaUBKTNV-1" source="AAZlV12Gzx9VgUJV0CkU-15" target="52jS_4H1RukoPa2EfRk2-92">
          <mxGeometry relative="1" as="geometry">
            <mxPoint x="430" y="1140" as="sourcePoint" />
            <mxPoint x="250" y="1152" as="targetPoint" />
          </mxGeometry>
        </mxCell>
        <mxCell id="AAZlV12Gzx9VgUJV0CkU-63" value="&lt;font color=&quot;#000000&quot;&gt;&amp;lt;&amp;lt;delegate&amp;gt;&amp;gt;&lt;/font&gt;" style="edgeLabel;html=1;align=center;verticalAlign=middle;resizable=0;points=[];fontColor=#5A00B5;rotation=0;labelBackgroundColor=none;fontFamily=Verdana;" vertex="1" connectable="0" parent="AAZlV12Gzx9VgUJV0CkU-62">
          <mxGeometry x="-0.4887" relative="1" as="geometry">
            <mxPoint x="65.08" y="-15.420000000000002" as="offset" />
          </mxGeometry>
        </mxCell>
        <mxCell id="AAZlV12Gzx9VgUJV0CkU-70" style="edgeStyle=orthogonalEdgeStyle;rounded=0;orthogonalLoop=1;jettySize=auto;html=1;exitX=1;exitY=0.5;exitDx=0;exitDy=0;entryX=-0.005;entryY=0.756;entryDx=0;entryDy=0;entryPerimeter=0;startArrow=none;startFill=0;endArrow=open;endFill=0;strokeWidth=1;fontFamily=Verdana;fontColor=#000000;" edge="1" parent="WIyWlLk6GJQsqaUBKTNV-1" source="52jS_4H1RukoPa2EfRk2-117" target="52jS_4H1RukoPa2EfRk2-153">
          <mxGeometry relative="1" as="geometry" />
        </mxCell>
        <mxCell id="AAZlV12Gzx9VgUJV0CkU-75" value="RPGTypes.h" style="text;html=1;strokeColor=none;fillColor=none;align=center;verticalAlign=middle;whiteSpace=wrap;rounded=0;fontFamily=Verdana;" vertex="1" parent="WIyWlLk6GJQsqaUBKTNV-1">
          <mxGeometry x="-80" y="510" width="90" height="20" as="geometry" />
        </mxCell>
      </root>
    </mxGraphModel>
  </diagram>
</mxfile>
